<svg width="21" height="21" viewBox="0 0 21 21" fill="none" xmlns="http://www.w3.org/2000/svg">
<path d="M14.2734 9.84375H11.1562V6.72656C11.1562 6.63633 11.0824 6.5625 10.9922 6.5625H10.0078C9.91758 6.5625 9.84375 6.63633 9.84375 6.72656V9.84375H6.72656C6.63633 9.84375 6.5625 9.91758 6.5625 10.0078V10.9922C6.5625 11.0824 6.63633 11.1562 6.72656 11.1562H9.84375V14.2734C9.84375 14.3637 9.91758 14.4375 10.0078 14.4375H10.9922C11.0824 14.4375 11.1562 14.3637 11.1562 14.2734V11.1562H14.2734C14.3637 11.1562 14.4375 11.0824 14.4375 10.9922V10.0078C14.4375 9.91758 14.3637 9.84375 14.2734 9.84375Z" fill="black"/>
<path d="M10.5 1.3125C5.42637 1.3125 1.3125 5.42637 1.3125 10.5C1.3125 15.5736 5.42637 19.6875 10.5 19.6875C15.5736 19.6875 19.6875 15.5736 19.6875 10.5C19.6875 5.42637 15.5736 1.3125 10.5 1.3125ZM10.5 18.1289C6.2877 18.1289 2.87109 14.7123 2.87109 10.5C2.87109 6.2877 6.2877 2.87109 10.5 2.87109C14.7123 2.87109 18.1289 6.2877 18.1289 10.5C18.1289 14.7123 14.7123 18.1289 10.5 18.1289Z" fill="black"/>
</svg>
