<svg width="12" height="17" viewBox="0 0 12 17" fill="none" xmlns="http://www.w3.org/2000/svg">
<path d="M10.3704 0H1.2963C0.952497 0 0.622779 0.125425 0.379677 0.348682C0.136574 0.57194 0 0.874742 0 1.19048V15.4762C0 15.7919 0.136574 16.0947 0.379677 16.318C0.622779 16.5412 0.952497 16.6667 1.2963 16.6667H10.3704C10.7142 16.6667 11.0439 16.5412 11.287 16.318C11.5301 16.0947 11.6667 15.7919 11.6667 15.4762V1.19048C11.6667 0.874742 11.5301 0.57194 11.287 0.348682C11.0439 0.125425 10.7142 0 10.3704 0ZM6.48148 15.4762H5.18518V14.2857H6.48148V15.4762ZM1.2963 13.0952V1.19048H10.3704V13.0952H1.2963Z" fill="black"/>
</svg>
