<svg width="17" height="14" viewBox="0 0 17 14" fill="none" xmlns="http://www.w3.org/2000/svg">
<path d="M17 6.77441C17 7.15411 16.7178 7.4679 16.3518 7.51757L16.25 7.52441L1.25 7.52441C0.835787 7.52441 0.5 7.18863 0.5 6.77441C0.5 6.39472 0.782154 6.08092 1.14823 6.03126L1.25 6.02441L16.25 6.02441C16.6642 6.02441 17 6.3602 17 6.77441Z" fill="#3D02E6"/>
<path d="M7.82899 12.2673C8.12251 12.5595 8.12354 13.0344 7.83128 13.3279C7.56558 13.5948 7.14897 13.6199 6.85489 13.4027L6.77062 13.3302L0.720618 7.30623C0.452981 7.03974 0.428634 6.62163 0.647588 6.32755L0.720574 6.24333L6.77057 0.218329C7.06407 -0.0739572 7.53895 -0.0729741 7.83123 0.220525C8.09695 0.487342 8.12029 0.904055 7.90183 1.19721L7.82904 1.28118L2.313 6.77506L7.82899 12.2673Z" fill="#3D02E6"/>
</svg>
