<svg width="46" height="47" viewBox="0 0 46 47" fill="none" xmlns="http://www.w3.org/2000/svg">
<path fill-rule="evenodd" clip-rule="evenodd" d="M38.4451 17.6529C38.1048 16.7575 37.6824 15.8793 37.1754 15.0279C32.4645 7.11767 22.2331 4.52403 14.3228 9.23489C6.41254 13.9457 3.8189 24.1772 8.52976 32.0875C13.2406 39.9977 23.4721 42.5914 31.3823 37.8805C34.7179 35.8941 37.1081 32.926 38.404 29.5643C37.805 29.0343 37.2908 28.4088 36.8615 27.6879C36.2996 26.7444 35.9507 25.7511 35.8148 24.7079C35.6785 23.665 35.7344 22.6538 35.9827 21.6744C36.231 20.695 36.6633 19.7791 37.2798 18.9266C37.6188 18.4582 38.0073 18.0336 38.4451 17.6529Z" fill="#00DAAC"/>
<path d="M31.4062 29.1423C31.4062 29.2997 31.3437 29.4508 31.2323 29.5621C31.121 29.6735 30.97 29.736 30.8125 29.736H14.1875C14.03 29.736 13.879 29.6735 13.7677 29.5621C13.6563 29.4508 13.5938 29.2997 13.5938 29.1423C13.5938 28.9848 13.6563 28.8338 13.7677 28.7224C13.879 28.6111 14.03 28.5485 14.1875 28.5485H30.8125C30.97 28.5485 31.121 28.6111 31.2323 28.7224C31.3437 28.8338 31.4062 28.9848 31.4062 29.1423ZM14.2098 20.993C14.1744 20.8686 14.1806 20.736 14.2275 20.6154C14.2744 20.4949 14.3594 20.3929 14.4695 20.3251L22.1883 15.5751C22.2817 15.5165 22.3897 15.4854 22.5 15.4854C22.6103 15.4854 22.7183 15.5165 22.8117 15.5751L30.5305 20.3251C30.6401 20.393 30.7247 20.4949 30.7713 20.6152C30.8179 20.7355 30.8241 20.8677 30.7889 20.9919C30.7537 21.116 30.679 21.2253 30.5761 21.3031C30.4732 21.381 30.3478 21.4233 30.2188 21.4235H28.4375V26.1735H29.625C29.7825 26.1735 29.9335 26.2361 30.0448 26.3474C30.1562 26.4588 30.2188 26.6098 30.2188 26.7673C30.2188 26.9247 30.1562 27.0758 30.0448 27.1871C29.9335 27.2985 29.7825 27.361 29.625 27.361H15.375C15.2175 27.361 15.0665 27.2985 14.9552 27.1871C14.8438 27.0758 14.7812 26.9247 14.7812 26.7673C14.7812 26.6098 14.8438 26.4588 14.9552 26.3474C15.0665 26.2361 15.2175 26.1735 15.375 26.1735H16.5625V21.4235H14.7812C14.6521 21.4237 14.5265 21.3817 14.4234 21.304C14.3203 21.2263 14.2453 21.1172 14.2098 20.993ZM23.6875 25.5798C23.6875 25.7372 23.7501 25.8883 23.8614 25.9996C23.9728 26.111 24.1238 26.1735 24.2812 26.1735C24.4387 26.1735 24.5897 26.111 24.7011 25.9996C24.8124 25.8883 24.875 25.7372 24.875 25.5798V22.0173C24.875 21.8598 24.8124 21.7088 24.7011 21.5974C24.5897 21.4861 24.4387 21.4235 24.2812 21.4235C24.1238 21.4235 23.9728 21.4861 23.8614 21.5974C23.7501 21.7088 23.6875 21.8598 23.6875 22.0173V25.5798ZM20.125 25.5798C20.125 25.7372 20.1876 25.8883 20.2989 25.9996C20.4103 26.111 20.5613 26.1735 20.7188 26.1735C20.8762 26.1735 21.0272 26.111 21.1386 25.9996C21.2499 25.8883 21.3125 25.7372 21.3125 25.5798V22.0173C21.3125 21.8598 21.2499 21.7088 21.1386 21.5974C21.0272 21.4861 20.8762 21.4235 20.7188 21.4235C20.5613 21.4235 20.4103 21.4861 20.2989 21.5974C20.1876 21.7088 20.125 21.8598 20.125 22.0173V25.5798Z" fill="white"/>
</svg>
