<svg width="16" height="16" viewBox="0 0 16 16" fill="none" xmlns="http://www.w3.org/2000/svg">
<path fill-rule="evenodd" clip-rule="evenodd" d="M12.6665 14.333H3.99984C3.381 14.333 2.78751 14.0872 2.34992 13.6496C1.91234 13.212 1.6665 12.6185 1.6665 11.9997V3.29503C1.6665 2.5837 2.3705 2.13237 2.98984 2.34703C3.0785 2.3777 3.16517 2.42237 3.24784 2.4817L3.3645 2.56504C3.64827 2.76639 3.98776 2.87427 4.3357 2.87367C4.68365 2.87307 5.02276 2.76403 5.30584 2.5617C5.7032 2.27891 6.17879 2.12695 6.6665 2.12695C7.15422 2.12695 7.62981 2.27891 8.02717 2.5617C8.31025 2.76403 8.64936 2.87307 8.9973 2.87367C9.34525 2.87427 9.68473 2.76639 9.9685 2.56504L10.0852 2.4817C10.7472 2.00837 11.6665 2.4817 11.6665 3.29503V8.33304H13.9998C14.1324 8.33304 14.2596 8.38571 14.3534 8.47948C14.4472 8.57325 14.4998 8.70043 14.4998 8.83304V12.4997C14.4998 12.9859 14.3067 13.4522 13.9629 13.7961C13.619 14.1399 13.1527 14.333 12.6665 14.333ZM11.8332 9.33304V12.4997C11.8332 12.7207 11.921 12.9327 12.0772 13.089C12.2335 13.2452 12.4455 13.333 12.6665 13.333C12.8875 13.333 13.0995 13.2452 13.2558 13.089C13.412 12.9327 13.4998 12.7207 13.4998 12.4997V9.33304H11.8332ZM8.99984 6.4997C8.99984 6.36709 8.94716 6.23992 8.85339 6.14615C8.75962 6.05238 8.63244 5.9997 8.49984 5.9997H4.49984C4.36723 5.9997 4.24005 6.05238 4.14628 6.14615C4.05252 6.23992 3.99984 6.36709 3.99984 6.4997C3.99984 6.63231 4.05252 6.75949 4.14628 6.85326C4.24005 6.94702 4.36723 6.9997 4.49984 6.9997H8.49984C8.63244 6.9997 8.75962 6.94702 8.85339 6.85326C8.94716 6.75949 8.99984 6.63231 8.99984 6.4997ZM8.33317 8.4997C8.33317 8.36709 8.28049 8.23992 8.18672 8.14615C8.09296 8.05238 7.96578 7.9997 7.83317 7.9997H4.49984C4.36723 7.9997 4.24005 8.05238 4.14628 8.14615C4.05252 8.23992 3.99984 8.36709 3.99984 8.4997C3.99984 8.63231 4.05252 8.75949 4.14628 8.85326C4.24005 8.94702 4.36723 8.9997 4.49984 8.9997H7.83317C7.96578 8.9997 8.09296 8.94702 8.18672 8.85326C8.28049 8.75949 8.33317 8.63231 8.33317 8.4997ZM8.49984 9.9997C8.63244 9.9997 8.75962 10.0524 8.85339 10.1461C8.94716 10.2399 8.99984 10.3671 8.99984 10.4997C8.99984 10.6323 8.94716 10.7595 8.85339 10.8533C8.75962 10.947 8.63244 10.9997 8.49984 10.9997H4.49984C4.36723 10.9997 4.24005 10.947 4.14628 10.8533C4.05252 10.7595 3.99984 10.6323 3.99984 10.4997C3.99984 10.3671 4.05252 10.2399 4.14628 10.1461C4.24005 10.0524 4.36723 9.9997 4.49984 9.9997H8.49984Z" fill="#00DAAC"/>
</svg>
