<svg width="42" height="42" viewBox="0 0 42 42" fill="none" xmlns="http://www.w3.org/2000/svg">
<circle cx="21" cy="21" r="21" fill="#3D02E6" fill-opacity="0.3"/>
<path d="M21.3437 7.57373C28.9492 7.57373 35.1142 13.7388 35.1142 21.3442C35.1142 28.9497 28.9492 35.1147 21.3437 35.1147C13.7383 35.1147 7.57324 28.9497 7.57324 21.3442C7.57324 13.7388 13.7383 7.57373 21.3437 7.57373ZM23.6434 26.8524H19.0441L17.1437 29.4647L17.9066 31.8139C19.0161 32.1773 20.1763 32.3618 21.3437 32.3606C22.5431 32.3606 23.6985 32.1678 24.7808 31.8139L25.5424 29.4647L23.642 26.8524H23.6434ZM12.1092 19.7909L10.3301 21.0812L10.3273 21.3442C10.3273 23.7265 11.0833 25.9312 12.3681 27.7337H14.9983L16.8201 25.2275L15.4045 20.8623L12.1092 19.7909ZM30.5782 19.7909L27.2829 20.8623L25.8673 25.2275L27.6878 27.7337H30.318C31.6493 25.8695 32.3635 23.6351 32.3601 21.3442L32.356 21.0812L30.5782 19.7909ZM24.4972 10.7864L22.7208 12.0808V15.5468L26.4306 18.2417L29.5138 17.2406L30.2767 14.8955C28.855 12.9275 26.8241 11.4832 24.4986 10.7864H24.4972ZM18.1875 10.7864C15.8618 11.4836 13.8308 12.9284 12.4094 14.8969L13.1723 17.2406L16.2555 18.2417L19.9667 15.5468V12.0808L18.1875 10.7864Z" fill="white"/>
</svg>
