<svg width="13" height="15" viewBox="0 0 13 15" fill="none" xmlns="http://www.w3.org/2000/svg">
<path d="M10.5837 11.25H2.25033V9.75H10.5837V11.25ZM10.5837 8.25H2.25033V6.75H10.5837V8.25ZM10.5837 5.25H2.25033V3.75H10.5837V5.25ZM0.166992 15L1.20866 13.875L2.25033 15L3.29199 13.875L4.33366 15L5.37533 13.875L6.41699 15L7.45866 13.875L8.50033 15L9.54199 13.875L10.5837 15L11.6253 13.875L12.667 15V0L11.6253 1.125L10.5837 0L9.54199 1.125L8.50033 0L7.45866 1.125L6.41699 0L5.37533 1.125L4.33366 0L3.29199 1.125L2.25033 0L1.20866 1.125L0.166992 0V15Z" fill="black"/>
</svg>
