<svg width="46" height="47" viewBox="0 0 46 47" fill="none" xmlns="http://www.w3.org/2000/svg">
<path fill-rule="evenodd" clip-rule="evenodd" d="M38.4451 17.653C38.1048 16.7577 37.6824 15.8794 37.1754 15.0281C32.4645 7.11779 22.2331 4.52415 14.3228 9.23501C6.41254 13.9459 3.8189 24.1773 8.52976 32.0876C13.2406 39.9979 23.4721 42.5915 31.3823 37.8806C34.7179 35.8942 37.1081 32.9261 38.404 29.5644C37.805 29.0344 37.2908 28.409 36.8615 27.6881C36.2996 26.7446 35.9507 25.7512 35.8148 24.708C35.6785 23.6651 35.7344 22.654 35.9827 21.6746C36.231 20.6952 36.6633 19.7792 37.2798 18.9267C37.6188 18.4583 38.0073 18.0337 38.4451 17.653Z" fill="#00DAAC"/>
<path d="M29.5827 20.0208C29.5827 20.9912 28.7893 21.7916 27.8118 21.7916C26.8343 21.7916 26.041 20.9912 26.041 20.0208C26.041 20.9912 25.2477 21.7916 24.2702 21.7916C23.2927 21.7916 22.4993 20.9912 22.4993 20.0208C22.4993 20.9912 21.706 21.7916 20.7285 21.7916C19.751 21.7916 18.9577 20.9912 18.9577 20.0208C18.9577 20.9912 18.1643 21.7916 17.1868 21.7916C16.2093 21.7916 15.416 20.9912 15.416 20.0208L16.4006 16.1816C16.4006 16.1816 16.606 15.4166 17.3285 15.4166H27.6702C28.3927 15.4166 28.5981 16.1816 28.5981 16.1816L29.5827 20.0208ZM28.8743 22.6416V28.1666C28.8743 28.9458 28.2368 29.5833 27.4577 29.5833H17.541C16.7618 29.5833 16.1243 28.9458 16.1243 28.1666V22.6416C16.59 22.8339 17.0988 22.8972 17.5974 22.8249C18.0959 22.7526 18.5658 22.5474 18.9577 22.2308C19.4464 22.6204 20.0627 22.8541 20.7285 22.8541C21.4014 22.8541 22.0177 22.6204 22.4993 22.2308C22.9881 22.6204 23.6043 22.8541 24.2702 22.8541C24.9431 22.8541 25.5593 22.6204 26.041 22.2308C26.5227 22.6204 27.146 22.8541 27.8118 22.8541C28.1873 22.8541 28.5485 22.7762 28.8743 22.6416ZM27.4577 26.2754C27.4577 26.1337 27.4577 25.985 27.4223 25.8291L27.401 25.7158H25.2973V26.5445H26.5793C26.5368 26.7004 26.4802 26.8562 26.3598 26.9837C26.126 27.2175 25.8073 27.345 25.4673 27.345C25.1131 27.345 24.766 27.1962 24.511 26.9483C24.0223 26.4454 24.0223 25.6308 24.5252 25.1208C25.0139 24.625 25.8214 24.625 26.3314 25.0995L26.4306 25.1916L27.0256 24.5895L26.9123 24.4904C26.5156 24.122 25.9914 23.9166 25.4389 23.9166H25.4318C24.8581 23.9166 24.3198 24.1362 23.916 24.5329C23.4981 24.9437 23.2643 25.482 23.2643 26.0416C23.2643 26.6083 23.4839 27.1325 23.8877 27.522C24.3084 27.9327 24.8723 28.1638 25.4602 28.1666H25.4743C26.041 28.1666 26.5439 27.9612 26.9123 27.6C27.2452 27.26 27.4577 26.75 27.4577 26.2754Z" fill="white"/>
<circle cx="25.1562" cy="25.8646" r="2.65625" fill="white"/>
</svg>
