<svg width="46" height="47" viewBox="0 0 46 47" fill="none" xmlns="http://www.w3.org/2000/svg">
<path fill-rule="evenodd" clip-rule="evenodd" d="M38.4451 17.6529C38.1048 16.7575 37.6824 15.8793 37.1754 15.0279C32.4645 7.11767 22.2331 4.52403 14.3228 9.23489C6.41254 13.9457 3.8189 24.1772 8.52976 32.0875C13.2406 39.9977 23.4721 42.5914 31.3823 37.8805C34.7179 35.8941 37.1081 32.926 38.404 29.5643C37.805 29.0343 37.2908 28.4088 36.8615 27.6879C36.2996 26.7444 35.9507 25.7511 35.8148 24.7079C35.6785 23.665 35.7344 22.6538 35.9827 21.6744C36.231 20.695 36.6633 19.7791 37.2798 18.9266C37.6188 18.4582 38.0073 18.0336 38.4451 17.6529Z" fill="#1EC572"/>
<path d="M21.9997 16.334C18.3237 16.334 15.333 19.3247 15.333 23.0007V25.7627C15.333 26.4453 15.931 27.0007 16.6663 27.0007H17.333C17.5098 27.0007 17.6794 26.9304 17.8044 26.8054C17.9294 26.6804 17.9997 26.5108 17.9997 26.334V22.9053C17.9997 22.7285 17.9294 22.5589 17.8044 22.4339C17.6794 22.3089 17.5098 22.2387 17.333 22.2387H16.7277C17.0983 19.6587 19.3183 17.6673 21.9997 17.6673C24.681 17.6673 26.901 19.6587 27.2717 22.2387H26.6663C26.4895 22.2387 26.32 22.3089 26.1949 22.4339C26.0699 22.5589 25.9997 22.7285 25.9997 22.9053V27.0007C25.9997 27.736 25.4017 28.334 24.6663 28.334H23.333V27.6673H20.6663V29.6673H24.6663C26.137 29.6673 27.333 28.4713 27.333 27.0007C28.0683 27.0007 28.6663 26.4453 28.6663 25.7627V23.0007C28.6663 19.3247 25.6757 16.334 21.9997 16.334Z" fill="white"/>
</svg>
