<svg width="46" height="47" viewBox="0 0 46 47" fill="none" xmlns="http://www.w3.org/2000/svg">
<path fill-rule="evenodd" clip-rule="evenodd" d="M38.4451 17.358C38.1048 16.4626 37.6824 15.5844 37.1754 14.733C32.4645 6.82275 22.2331 4.22911 14.3228 8.93996C6.41254 13.6508 3.8189 23.8823 8.52976 31.7925C13.2406 39.7028 23.4721 42.2965 31.3823 37.5856C34.7179 35.5991 37.1081 32.6311 38.404 29.2693C37.805 28.7394 37.2908 28.1139 36.8615 27.393C36.2996 26.4495 35.9507 25.4562 35.8148 24.413C35.6785 23.3701 35.7344 22.3589 35.9827 21.3795C36.231 20.4001 36.6633 19.4842 37.2798 18.6317C37.6188 18.1633 38.0073 17.7387 38.4451 17.358Z" fill="#3D02E6"/>
<g clip-path="url(#clip0_637_8078)">
<path fill-rule="evenodd" clip-rule="evenodd" d="M17.4167 16.3768C17.0321 16.3768 16.6633 16.5296 16.3914 16.8015C16.1194 17.0734 15.9667 17.4423 15.9667 17.8268V20.2435H15V17.8268C15 17.1859 15.2546 16.5712 15.7078 16.118C16.161 15.6648 16.7757 15.4102 17.4167 15.4102H19.8333V16.3768H17.4167ZM27.0833 16.3768H24.6667V15.4102H27.0833C27.7243 15.4102 28.339 15.6648 28.7922 16.118C29.2454 16.5712 29.5 17.1859 29.5 17.8268V20.2435H28.5333V17.8268C28.5333 17.4423 28.3806 17.0734 28.1086 16.8015C27.8367 16.5296 27.4679 16.3768 27.0833 16.3768ZM19.8333 21.2102H18.8667V20.2435H19.8333V21.2102ZM25.6333 21.2102H24.6667V20.2435H25.6333V21.2102ZM19.7367 23.8202C20.0293 24.2103 20.4088 24.527 20.845 24.7451C21.2812 24.9633 21.7623 25.0768 22.25 25.0768C22.7377 25.0768 23.2188 24.9633 23.655 24.7451C24.0912 24.527 24.4707 24.2103 24.7633 23.8202L25.5367 24.4002C23.8933 26.5916 20.6067 26.5916 18.9633 24.4002L19.7367 23.8202ZM15 27.4935V25.0768H15.9667V27.4935C15.9667 27.8781 16.1194 28.2469 16.3914 28.5188C16.6633 28.7907 17.0321 28.9435 17.4167 28.9435H19.8333V29.9102H17.4167C16.7757 29.9102 16.161 29.6555 15.7078 29.2023C15.2546 28.7491 15 28.1344 15 27.4935ZM29.5 25.0768V27.4935C29.5 28.1344 29.2454 28.7491 28.7922 29.2023C28.339 29.6555 27.7243 29.9102 27.0833 29.9102H24.6667V28.9435H27.0833C27.4679 28.9435 27.8367 28.7907 28.1086 28.5188C28.3806 28.2469 28.5333 27.8781 28.5333 27.4935V25.0768H29.5Z" fill="#F2F2F2"/>
</g>
<defs>
<clipPath id="clip0_637_8078">
<rect width="14.5" height="14.5" fill="white" transform="translate(15 15.4102)"/>
</clipPath>
</defs>
</svg>
