<svg width="46" height="46" viewBox="0 0 46 46" fill="none" xmlns="http://www.w3.org/2000/svg">
<path fill-rule="evenodd" clip-rule="evenodd" d="M38.4451 16.9478C38.1048 16.0525 37.6824 15.1742 37.1754 14.3229C32.4645 6.41259 22.2331 3.81895 14.3228 8.52981C6.41254 13.2407 3.8189 23.4721 8.52976 31.3824C13.2406 39.2927 23.4721 41.8863 31.3823 37.1754C34.7179 35.189 37.1081 32.2209 38.404 28.8592C37.805 28.3292 37.2908 27.7038 36.8615 26.9829C36.2996 26.0394 35.9507 25.046 35.8148 24.0028C35.6785 22.9599 35.7344 21.9488 35.9827 20.9694C36.231 19.99 36.6633 19.074 37.2798 18.2215C37.6188 17.7531 38.0073 17.3285 38.4451 16.9478Z" fill="#78778B"/>
<g clip-path="url(#clip0_637_7586)">
<path fill-rule="evenodd" clip-rule="evenodd" d="M17.4167 15.9667C17.0321 15.9667 16.6633 16.1194 16.3914 16.3914C16.1194 16.6633 15.9667 17.0321 15.9667 17.4167V19.8333H15V17.4167C15 16.7757 15.2546 16.161 15.7078 15.7078C16.161 15.2546 16.7757 15 17.4167 15H19.8333V15.9667H17.4167ZM27.0833 15.9667H24.6667V15H27.0833C27.7243 15 28.339 15.2546 28.7922 15.7078C29.2454 16.161 29.5 16.7757 29.5 17.4167V19.8333H28.5333V17.4167C28.5333 17.0321 28.3806 16.6633 28.1086 16.3914C27.8367 16.1194 27.4679 15.9667 27.0833 15.9667ZM19.8333 20.8H18.8667V19.8333H19.8333V20.8ZM25.6333 20.8H24.6667V19.8333H25.6333V20.8ZM19.7367 23.41C20.0293 23.8002 20.4088 24.1169 20.845 24.335C21.2812 24.5531 21.7623 24.6667 22.25 24.6667C22.7377 24.6667 23.2188 24.5531 23.655 24.335C24.0912 24.1169 24.4707 23.8002 24.7633 23.41L25.5367 23.99C23.8933 26.1814 20.6067 26.1814 18.9633 23.99L19.7367 23.41ZM15 27.0833V24.6667H15.9667V27.0833C15.9667 27.4679 16.1194 27.8367 16.3914 28.1086C16.6633 28.3806 17.0321 28.5333 17.4167 28.5333H19.8333V29.5H17.4167C16.7757 29.5 16.161 29.2454 15.7078 28.7922C15.2546 28.339 15 27.7243 15 27.0833ZM29.5 24.6667V27.0833C29.5 27.7243 29.2454 28.339 28.7922 28.7922C28.339 29.2454 27.7243 29.5 27.0833 29.5H24.6667V28.5333H27.0833C27.4679 28.5333 27.8367 28.3806 28.1086 28.1086C28.3806 27.8367 28.5333 27.4679 28.5333 27.0833V24.6667H29.5Z" fill="#F2F2F2"/>
</g>
<defs>
<clipPath id="clip0_637_7586">
<rect width="14.5" height="14.5" fill="white" transform="translate(15 15)"/>
</clipPath>
</defs>
</svg>
