<svg width="16" height="21" viewBox="0 0 16 21" fill="none" xmlns="http://www.w3.org/2000/svg">
<path d="M14.9744 0.51709H3.03054C2.93249 0.51709 2.85227 0.59731 2.85227 0.695357V1.94323C2.85227 2.04127 2.93249 2.12149 3.03054 2.12149H14.0831V17.4525C14.0831 17.5505 14.1633 17.6307 14.2614 17.6307H15.5092C15.6073 17.6307 15.6875 17.5505 15.6875 17.4525V1.23016C15.6875 0.835742 15.3688 0.51709 14.9744 0.51709ZM12.1222 3.36936H0.713068C0.318652 3.36936 0 3.68801 0 4.08243V15.9082C0 16.0976 0.0757634 16.2781 0.209464 16.4118L4.07117 20.2735C4.1202 20.3226 4.17591 20.3627 4.23607 20.3961V20.4384H4.32966C4.40765 20.4674 4.4901 20.483 4.57478 20.483H12.1222C12.5166 20.483 12.8352 20.1643 12.8352 19.7699V4.08243C12.8352 3.68801 12.5166 3.36936 12.1222 3.36936ZM4.94691 19.0569H4.94245L1.6044 15.7188V15.7144H4.94691V19.0569Z" fill="#A3A3A3"/>
</svg>
