<svg width="74" height="27" viewBox="0 0 74 27" fill="none" xmlns="http://www.w3.org/2000/svg">
<path fill-rule="evenodd" clip-rule="evenodd" d="M9.11383 22.6138C14.1473 22.6138 18.2277 18.5334 18.2277 13.4999C18.2277 8.46651 14.1473 4.38611 9.11383 4.38611C4.0804 4.38611 0 8.46651 0 13.4999C0 14.4871 0.156937 15.4376 0.447222 16.3278C2.11582 11.3922 6.71549 10.5834 9.54343 10.5834C10.9849 10.5834 11.9458 10.7893 11.9458 10.7893C11.9458 10.7893 13.7562 19.6904 6.57289 22.2549C7.37941 22.4885 8.23199 22.6138 9.11383 22.6138ZM2.66901 19.944C5.4127 14.6601 9.40615 13.329 9.40615 13.329C3.49401 13.329 2.67414 18.4213 2.56044 19.8336C2.59632 19.8707 2.63251 19.9075 2.66901 19.944Z" fill="url(#paint0_linear_514_6139)"/>
<path d="M21.0186 15.5562L23.7033 14.971C23.8066 15.6709 24.2196 16.0209 24.9424 16.0209C25.3899 16.0209 25.7398 15.952 25.9922 15.8143C26.2561 15.6652 26.3881 15.4701 26.3881 15.2292C26.3881 15.0112 26.2332 14.8506 25.9234 14.7473C25.6136 14.6326 25.2407 14.5408 24.8048 14.472C24.3688 14.3916 23.9328 14.2826 23.4968 14.145C23.0608 14.0073 22.6879 13.7549 22.3781 13.3877C22.0684 13.0206 21.9135 12.5387 21.9135 11.9421C21.9135 11.116 22.2864 10.3989 23.0321 9.79083C23.7894 9.18275 24.7302 8.8787 25.8546 8.8787C26.9101 8.8787 27.7821 9.11964 28.4705 9.60152C29.1589 10.0719 29.5719 10.703 29.7096 11.4946L27.0248 12.0798C26.9216 11.3799 26.5028 11.03 25.7685 11.03C25.4587 11.03 25.2006 11.0988 24.9941 11.2365C24.7875 11.3627 24.6843 11.5348 24.6843 11.7528C24.6843 11.9822 24.8392 12.1543 25.149 12.2691C25.4587 12.3838 25.8316 12.4813 26.2676 12.5616C26.7036 12.642 27.1396 12.7567 27.5756 12.9058C28.0115 13.0435 28.3844 13.2959 28.6942 13.6631C29.004 14.0302 29.1589 14.5121 29.1589 15.1087C29.1589 16.0151 28.7286 16.7551 27.8681 17.3288C27.0076 17.891 26.0324 18.1721 24.9424 18.1721C23.8525 18.1721 22.9575 17.9369 22.2577 17.4665C21.5578 16.9961 21.1448 16.3593 21.0186 15.5562ZM36.2491 8.8787C37.2817 8.8787 38.1135 9.21143 38.7445 9.87688C39.387 10.5423 39.7083 11.443 39.7083 12.5789C39.7083 14.0819 39.1977 15.3898 38.1766 16.5027C37.1555 17.6156 35.9565 18.1721 34.5797 18.1721C33.5012 18.1721 32.6637 17.8107 32.0671 17.0879L31.1377 21.442H28.3841L31.0172 9.0508H33.7708L33.5815 9.92851C34.442 9.22864 35.3312 8.8787 36.2491 8.8787ZM34.3732 15.6594C35.0501 15.6594 35.6295 15.3956 36.1114 14.8678C36.6048 14.3285 36.8514 13.709 36.8514 13.0091C36.8514 12.5272 36.708 12.1371 36.4212 11.8388C36.1458 11.5405 35.7729 11.3914 35.3025 11.3914C34.6256 11.3914 34.0405 11.661 33.5471 12.2002C33.0652 12.728 32.8243 13.3418 32.8243 14.0417C32.8243 14.5236 32.962 14.9137 33.2373 15.212C33.5242 15.5103 33.9028 15.6594 34.3732 15.6594ZM44.1141 9.0508L43.8732 10.135C44.3207 9.59579 44.8714 9.2229 45.5254 9.01638C46.1793 8.80986 46.7817 8.82134 47.3324 9.0508L46.7817 11.6323C45.9327 11.2881 45.1697 11.2537 44.4928 11.529C43.8158 11.8044 43.4028 12.3035 43.2536 13.0263L42.2038 18H39.4502L41.3605 9.0508H44.1141ZM46.159 14.2654C46.159 12.7968 46.6982 11.5348 47.7767 10.4792C48.8667 9.41221 50.1689 8.8787 51.6834 8.8787C52.934 8.8787 53.9494 9.23438 54.7296 9.94572C55.5097 10.6456 55.8998 11.5921 55.8998 12.7854C55.8998 14.254 55.3606 15.5218 54.2821 16.5888C53.2036 17.6443 51.9129 18.1721 50.4099 18.1721C49.1478 18.1721 48.1209 17.8222 47.3293 17.1223C46.5491 16.4109 46.159 15.4587 46.159 14.2654ZM49.0158 14.0417C49.0158 14.5236 49.1535 14.9137 49.4289 15.212C49.7157 15.5103 50.0943 15.6594 50.5647 15.6594C51.2417 15.6594 51.8211 15.3956 52.303 14.8678C52.7963 14.3285 53.043 13.709 53.043 13.0091C53.043 12.5272 52.8996 12.1371 52.6127 11.8388C52.3374 11.5405 51.9645 11.3914 51.4941 11.3914C50.8172 11.3914 50.232 11.661 49.7387 12.2002C49.2568 12.728 49.0158 13.3418 49.0158 14.0417ZM56.4239 13.8352L57.4221 9.0508H60.1757L59.0914 14.1794C58.9997 14.6268 59.0628 14.9883 59.2807 15.2636C59.5102 15.5275 59.8602 15.6594 60.3306 15.6594C60.778 15.6594 61.1738 15.5218 61.518 15.2464C61.8737 14.971 62.0975 14.6154 62.1892 14.1794L63.2735 9.0508H66.0271L64.874 14.5236C64.6331 15.6939 64.0709 16.5945 63.1874 17.2256C62.3154 17.8566 61.2427 18.1721 59.9691 18.1721C58.6956 18.1721 57.7204 17.7648 57.0434 16.9502C56.3665 16.1356 56.16 15.0972 56.4239 13.8352ZM67.6114 11.4602H65.8904L66.4067 9.0508H68.1277L68.644 6.6414L71.5697 5.7809L70.8813 9.0508H73.0326L72.5163 11.4602H70.365L69.711 14.558C69.5734 15.2464 69.843 15.5906 70.5199 15.5906H71.6385L71.1222 18H70.1929C68.9538 18 68.0531 17.6615 67.4909 16.9846C66.9287 16.3077 66.7739 15.3841 67.0263 14.2138L67.6114 11.4602Z" fill="white"/>
<defs>
<linearGradient id="paint0_linear_514_6139" x1="9.11383" y1="4.38611" x2="9.07944" y2="22.6482" gradientUnits="userSpaceOnUse">
<stop stop-color="#3D02E6"/>
<stop offset="1" stop-color="#2EDCB7"/>
</linearGradient>
</defs>
</svg>
