<svg width="24" height="23" viewBox="0 0 24 23" fill="none" xmlns="http://www.w3.org/2000/svg">
<path fill-rule="evenodd" clip-rule="evenodd" d="M12.2744 20.3651C11.0221 20.3651 9.80123 20.3512 8.5933 20.3262C7.04804 20.2957 5.97874 19.2939 5.80407 17.7117C5.51295 15.087 5.0148 8.90037 5.01018 8.83845C4.97876 8.45676 5.26341 8.1222 5.64511 8.0917C6.02126 8.08153 6.36136 8.34585 6.39186 8.72662C6.39648 8.78947 6.8937 14.9548 7.18205 17.5592C7.28094 18.4584 7.76614 18.9224 8.62195 18.9399C10.9324 18.9889 13.2901 18.9917 15.8316 18.9455C16.741 18.9279 17.2327 18.4732 17.3344 17.5527C17.6209 14.9705 18.1199 8.78947 18.1255 8.72662C18.156 8.34585 18.4933 8.07968 18.8713 8.0917C19.253 8.12312 19.5377 8.45676 19.5072 8.83845C19.5016 8.9013 19.0007 15.1036 18.7123 17.7052C18.5331 19.3198 17.4665 20.3022 15.8566 20.3318C14.6246 20.353 13.4361 20.3651 12.2744 20.3651Z" fill="#222222"/>
<path fill-rule="evenodd" clip-rule="evenodd" d="M20.0942 6.49201H4.42166C4.03905 6.49201 3.72852 6.18148 3.72852 5.79886C3.72852 5.41624 4.03905 5.10571 4.42166 5.10571H20.0942C20.4768 5.10571 20.7874 5.41624 20.7874 5.79886C20.7874 6.18148 20.4768 6.49201 20.0942 6.49201Z" fill="#222222"/>
<path fill-rule="evenodd" clip-rule="evenodd" d="M17.0741 6.49217C16.0224 6.49217 15.1093 5.74265 14.9022 4.71124L14.6777 3.58742C14.6305 3.41644 14.4355 3.26765 14.2137 3.26765H10.3016C10.0798 3.26765 9.88478 3.41644 9.8284 3.62993L9.61306 4.71124C9.40697 5.74265 8.49293 6.49217 7.4412 6.49217C7.05858 6.49217 6.74805 6.18164 6.74805 5.79902C6.74805 5.41641 7.05858 5.10588 7.4412 5.10588C7.8349 5.10588 8.17686 4.82492 8.25449 4.4386L8.47907 3.31478C8.70735 2.45343 9.45318 1.88135 10.3016 1.88135H14.2137C15.0621 1.88135 15.808 2.45343 16.027 3.27319L16.2617 4.4386C16.3385 4.82492 16.6804 5.10588 17.0741 5.10588C17.4567 5.10588 17.7673 5.41641 17.7673 5.79902C17.7673 6.18164 17.4567 6.49217 17.0741 6.49217Z" fill="#222222"/>
</svg>
