<svg width="46" height="46" viewBox="0 0 46 46" fill="none" xmlns="http://www.w3.org/2000/svg">
<circle cx="23" cy="23" r="23" fill="#FF5C00" fill-opacity="0.2"/>
<path fill-rule="evenodd" clip-rule="evenodd" d="M23.001 26.541C22.587 26.541 22.251 26.205 22.251 25.791V13.75C22.251 13.336 22.587 13 23.001 13C23.415 13 23.751 13.336 23.751 13.75V25.791C23.751 26.205 23.415 26.541 23.001 26.541Z" fill="#FF5C00"/>
<path fill-rule="evenodd" clip-rule="evenodd" d="M23.0003 26.541C22.8013 26.541 22.6093 26.462 22.4693 26.32L19.5533 23.393C19.2613 23.099 19.2623 22.624 19.5553 22.332C19.8493 22.04 20.3233 22.04 20.6153 22.334L23.0003 24.729L25.3853 22.334C25.6773 22.04 26.1513 22.04 26.4453 22.332C26.7383 22.624 26.7393 23.099 26.4473 23.393L23.5313 26.32C23.3913 26.462 23.1993 26.541 23.0003 26.541Z" fill="#FF5C00"/>
<mask id="mask0_637_18613" style="mask-type:luminance" maskUnits="userSpaceOnUse" x="13" y="17" width="20" height="15">
<path fill-rule="evenodd" clip-rule="evenodd" d="M13 17.7324H32.9998V31.4764H13V17.7324Z" fill="white"/>
</mask>
<g mask="url(#mask0_637_18613)">
<path fill-rule="evenodd" clip-rule="evenodd" d="M28.575 31.4764H17.435C14.99 31.4764 13 29.4874 13 27.0414V22.1564C13 19.7164 14.985 17.7324 17.426 17.7324H18.367C18.781 17.7324 19.117 18.0684 19.117 18.4824C19.117 18.8964 18.781 19.2324 18.367 19.2324H17.426C15.812 19.2324 14.5 20.5434 14.5 22.1564V27.0414C14.5 28.6604 15.816 29.9764 17.435 29.9764H28.575C30.187 29.9764 31.5 28.6634 31.5 27.0514V22.1674C31.5 20.5484 30.183 19.2324 28.566 19.2324H27.634C27.22 19.2324 26.884 18.8964 26.884 18.4824C26.884 18.0684 27.22 17.7324 27.634 17.7324H28.566C31.011 17.7324 33 19.7224 33 22.1674V27.0514C33 29.4914 31.014 31.4764 28.575 31.4764Z" fill="#FF5C00"/>
</g>
</svg>
