<svg width="42" height="42" viewBox="0 0 42 42" fill="none" xmlns="http://www.w3.org/2000/svg">
<circle cx="21" cy="21" r="21" fill="#FCB41C" fill-opacity="0.2"/>
<path fill-rule="evenodd" clip-rule="evenodd" d="M13.8186 22.9175C14.4809 23.7272 16.1664 26.7271 16.5245 28.2295H26.1638C26.5218 26.7285 28.2053 23.7286 28.8676 22.9196C29.9995 21.5388 30.712 19.8627 30.9208 18.0896C31.1268 16.3199 30.8187 14.5283 30.0333 12.9291C29.2405 11.318 28.0078 9.96425 26.4778 9.02445C24.9343 8.0751 23.1576 7.57288 21.3455 7.57373C19.5299 7.57373 17.7507 8.07635 16.2132 9.02308C14.6828 9.96252 13.4497 11.316 12.6563 12.927C11.8705 14.5256 11.5617 16.3167 11.7667 18.0861C11.9726 19.8536 12.6839 21.5287 13.8186 22.9175ZM22.0326 13.0819L17.9015 19.2787H20.6556V23.4098L24.7867 17.2131H22.0326V13.0819Z" fill="#FCB41C"/>
<path d="M16.5244 30.295C16.5244 30.1124 16.597 29.9372 16.7261 29.8081C16.8552 29.679 17.0303 29.6064 17.2129 29.6064H25.4752C25.6578 29.6064 25.833 29.679 25.9621 29.8081C26.0912 29.9372 26.1638 30.1124 26.1638 30.295C26.1638 30.4776 26.0912 30.6527 25.9621 30.7818C25.833 30.911 25.6578 30.9835 25.4752 30.9835H17.2129C17.0303 30.9835 16.8552 30.911 16.7261 30.7818C16.597 30.6527 16.5244 30.4776 16.5244 30.295ZM26.1638 32.3605H16.5244V33.7376C16.5244 34.1028 16.6695 34.4531 16.9277 34.7113C17.186 34.9696 17.5362 35.1146 17.9015 35.1146H24.7867C25.1519 35.1146 25.5022 34.9696 25.7604 34.7113C26.0187 34.4531 26.1638 34.1028 26.1638 33.7376V32.3605Z" fill="#FCB41C"/>
</svg>
