<svg width="46" height="47" viewBox="0 0 46 47" fill="none" xmlns="http://www.w3.org/2000/svg">
<path fill-rule="evenodd" clip-rule="evenodd" d="M38.4451 17.6529C38.1048 16.7575 37.6824 15.8793 37.1754 15.0279C32.4645 7.11767 22.2331 4.52403 14.3228 9.23489C6.41254 13.9457 3.8189 24.1772 8.52976 32.0875C13.2406 39.9977 23.4721 42.5914 31.3823 37.8805C34.7179 35.8941 37.1081 32.926 38.404 29.5643C37.805 29.0343 37.2908 28.4088 36.8615 27.6879C36.2996 26.7444 35.9507 25.7511 35.8148 24.7079C35.6785 23.665 35.7344 22.6538 35.9827 21.6744C36.231 20.695 36.6633 19.7791 37.2798 18.9266C37.6188 18.4582 38.0073 18.0336 38.4451 17.6529Z" fill="#9747FF"/>
<g clip-path="url(#clip0_637_7599)">
<g clip-path="url(#clip1_637_7599)">
<path d="M25.069 21.8903L27.1577 22.3384L27.9781 23.6068L24.8071 25.6576L27.2681 29.4627L27.044 30.5071L25.9997 30.2831L23.5387 26.4779L20.3677 28.5287L19.5474 27.2603L19.9955 25.1716L17.1244 20.7322L16.4902 21.1424L15.6698 19.874L22.0118 15.7724L22.8321 17.0408L22.1979 17.451L25.069 21.8903Z" fill="#F2F2F2"/>
</g>
</g>
<defs>
<clipPath id="clip0_637_7599">
<rect width="24" height="24" fill="white" transform="translate(11 12)"/>
</clipPath>
<clipPath id="clip1_637_7599">
<rect width="18.1265" height="18.1265" fill="white" transform="translate(10 20.8438) rotate(-32.8925)"/>
</clipPath>
</defs>
</svg>
