<svg width="46" height="46" viewBox="0 0 46 46" fill="none" xmlns="http://www.w3.org/2000/svg">
<path fill-rule="evenodd" clip-rule="evenodd" d="M38.4451 16.9478C38.1048 16.0525 37.6824 15.1742 37.1754 14.3229C32.4645 6.41259 22.2331 3.81895 14.3228 8.52981C6.41254 13.2407 3.8189 23.4721 8.52976 31.3824C13.2406 39.2927 23.4721 41.8863 31.3823 37.1754C34.7179 35.189 37.1081 32.2209 38.404 28.8592C37.805 28.3292 37.2908 27.7038 36.8615 26.9829C36.2996 26.0394 35.9507 25.046 35.8148 24.0028C35.6785 22.9599 35.7344 21.9488 35.9827 20.9694C36.231 19.99 36.6633 19.074 37.2798 18.2215C37.6188 17.7531 38.0073 17.3285 38.4451 16.9478Z" fill="#FF6E83"/>
<path d="M25.9997 24.9997H17.9997L15.333 27.6663V16.9997C15.333 16.8229 15.4032 16.6533 15.5283 16.5283C15.6533 16.4032 15.8229 16.333 15.9997 16.333H25.9997C26.1765 16.333 26.3461 16.4032 26.4711 16.5283C26.5961 16.6533 26.6663 16.8229 26.6663 16.9997V24.333C26.6663 24.5098 26.5961 24.6794 26.4711 24.8044C26.3461 24.9294 26.1765 24.9997 25.9997 24.9997ZM29.333 20.9997V30.333L26.6663 27.6663H19.333C19.1562 27.6663 18.9866 27.5961 18.8616 27.4711C18.7366 27.3461 18.6663 27.1765 18.6663 26.9997V26.333H27.9997V20.333H28.6663C28.8432 20.333 29.0127 20.4032 29.1377 20.5283C29.2628 20.6533 29.333 20.8229 29.333 20.9997ZM19.4597 17.6663C18.8797 17.6663 18.413 17.7997 18.053 18.0597C17.7063 18.333 17.533 18.713 17.5397 19.2397L17.5463 19.2597H18.833C18.8397 19.0597 18.8997 18.9063 19.0197 18.7997C19.1431 18.6973 19.2993 18.6429 19.4597 18.6463C19.6663 18.6463 19.8397 18.713 19.9597 18.833C20.0797 18.9597 20.133 19.133 20.133 19.333C20.133 19.5463 20.0863 19.7263 19.9797 19.8797C19.8863 20.033 19.7463 20.1663 19.573 20.273C19.233 20.4997 18.9997 20.6997 18.873 20.8797C18.7397 21.053 18.6663 21.333 18.6663 21.6663H19.9997C19.9997 21.4597 20.0263 21.293 20.0863 21.173C20.1463 21.053 20.2597 20.933 20.4263 20.8263C20.7263 20.6663 20.973 20.473 21.1663 20.2063C21.3597 19.9397 21.4597 19.6663 21.4597 19.333C21.4597 18.8263 21.2797 18.4197 20.9197 18.1197C20.5663 17.8197 20.0797 17.6663 19.4597 17.6663ZM18.6663 22.333V23.6663H19.9997V22.333H18.6663ZM22.6663 23.6663H23.9997V22.333H22.6663V23.6663ZM22.6663 17.6663V21.6663H23.9997V17.6663H22.6663Z" fill="white"/>
</svg>
