<svg width="41" height="47" viewBox="0 0 41 47" fill="none" xmlns="http://www.w3.org/2000/svg">
<path d="M33.3643 6.20452C33.1854 6.20497 33.0095 6.15738 32.8552 6.06671C28.6079 3.7928 24.9358 2.82812 20.5334 2.82812C16.1531 2.82812 11.9938 3.90765 8.21069 6.06671C7.67571 6.36913 7.01631 6.15859 6.70623 5.60351C6.56783 5.3356 6.53661 5.02504 6.61891 4.73494C6.70121 4.44484 6.89087 4.19695 7.14934 4.04163C11.2295 1.72751 15.8427 0.517558 20.5334 0.531243C25.2449 0.531243 29.3601 1.61077 33.8735 4.02249C34.1368 4.16728 34.3329 4.40951 34.4197 4.69721C34.5064 4.98491 34.477 5.29516 34.3376 5.5614C34.2539 5.75042 34.1176 5.91147 33.9451 6.02545C33.7726 6.13944 33.5711 6.20158 33.3643 6.20452ZM1.7067 18.2631C1.47684 18.2615 1.25302 18.1893 1.06549 18.0564C0.821505 17.8751 0.657415 17.6061 0.607787 17.3062C0.558159 17.0063 0.626867 16.6988 0.799438 16.4486C2.99008 13.233 5.776 10.7064 9.09594 8.93781C16.0421 5.2207 24.9358 5.1939 31.9039 8.91484C35.2229 10.6834 38.0098 13.187 40.2004 16.3797C40.3723 16.6302 40.4406 16.9374 40.391 17.2371C40.3414 17.5368 40.1777 17.8057 39.9344 17.9875C39.8163 18.0758 39.6813 18.1388 39.5379 18.1729C39.3944 18.2069 39.2455 18.2111 39.1004 18.1853C38.9552 18.1594 38.8169 18.1041 38.694 18.0227C38.5711 17.9412 38.4663 17.8355 38.3859 17.7119C36.3953 14.8178 33.8735 12.5439 30.8866 10.9591C24.5376 7.58265 16.4182 7.58265 10.0913 10.982C7.08235 12.5898 4.56057 14.8867 2.56995 17.7769C2.48411 17.929 2.35829 18.0547 2.20613 18.1404C2.05397 18.2261 1.88126 18.2686 1.7067 18.2631ZM15.5329 45.9902C15.3867 45.9916 15.2419 45.9616 15.1083 45.9022C14.9748 45.8427 14.8555 45.7552 14.7587 45.6457C12.8341 43.6436 11.7909 42.3535 10.3123 39.5781C8.78108 36.753 7.98961 33.3076 7.98961 29.6097C7.98961 22.788 13.6083 17.2295 20.5114 17.2295C27.4145 17.2295 33.037 22.788 33.037 29.6097C33.0414 29.7576 33.016 29.905 32.9624 30.0429C32.9088 30.1809 32.828 30.3067 32.7249 30.4129C32.6218 30.5191 32.4984 30.6035 32.3621 30.6612C32.2257 30.7188 32.0792 30.7485 31.9312 30.7485C31.7832 30.7485 31.6366 30.7188 31.5003 30.6612C31.364 30.6035 31.2406 30.5191 31.1375 30.4129C31.0344 30.3067 30.9536 30.1809 30.9 30.0429C30.8464 29.905 30.821 29.7576 30.8253 29.6097C30.8253 24.0512 26.201 19.5264 20.5162 19.5264C14.8314 19.5264 10.2023 24.0512 10.2023 29.6097C10.2023 32.9172 10.9095 35.972 12.2589 38.4526C13.6753 41.0941 14.6515 42.2195 16.3522 44.0111C16.5538 44.234 16.6655 44.5239 16.6655 44.8246C16.6655 45.1252 16.5538 45.4151 16.3522 45.638C16.135 45.8571 15.8413 45.9834 15.5329 45.9902ZM31.3957 41.741C28.7629 41.741 26.4402 41.0519 24.5376 39.6968C22.9167 38.5606 21.5925 37.0517 20.6765 35.2969C19.7604 33.5421 19.2794 31.593 19.274 29.6135C19.2678 29.4644 19.2918 29.3155 19.3446 29.1758C19.3974 29.0362 19.4779 28.9087 19.5812 28.801C19.6846 28.6932 19.8086 28.6075 19.9459 28.5489C20.0833 28.4904 20.231 28.4602 20.3803 28.4602C20.5296 28.4602 20.6773 28.4904 20.8146 28.5489C20.952 28.6075 21.076 28.6932 21.1794 28.801C21.2827 28.9087 21.3632 29.0362 21.416 29.1758C21.4688 29.3155 21.4928 29.4644 21.4866 29.6135C21.4903 31.2213 21.8825 32.8045 22.6296 34.2281C23.3768 35.6518 24.4569 36.8739 25.778 37.7904C27.3484 38.8929 29.185 39.4173 31.3976 39.4173C32.1683 39.4036 32.9365 39.3268 33.6945 39.1876C34.2917 39.0728 34.8669 39.4862 34.9769 40.1294C35.033 40.4262 34.9691 40.7331 34.7992 40.9828C34.6293 41.2326 34.3673 41.4047 34.0706 41.4616C33.1894 41.6357 32.294 41.7279 31.3957 41.7372V41.741ZM26.9484 46.4687C26.8512 46.4647 26.7549 46.4493 26.6613 46.4228C23.1432 45.4122 20.8425 44.057 18.4308 41.5994C15.3329 38.4067 13.6304 34.1575 13.6304 29.6097C13.6304 25.8887 16.6833 22.8569 20.4435 22.8569C24.2036 22.8569 27.2575 25.8887 27.2575 29.6097C27.2575 32.0673 29.3151 34.0656 31.8589 34.0656C34.4027 34.0656 36.4603 32.0673 36.4603 29.6097C36.4603 20.9505 29.2702 13.922 20.4214 13.922C14.1385 13.922 8.38678 17.5511 5.79897 23.1784C4.93764 25.0389 4.49358 27.2209 4.49358 29.6097C4.49358 31.4012 4.64766 34.2264 5.97506 37.9014C6.19709 38.4986 5.90903 39.1647 5.33385 39.3714C5.19716 39.4235 5.05135 39.4473 4.9052 39.4416C4.75904 39.4359 4.61555 39.4007 4.48334 39.3381C4.35113 39.2756 4.23293 39.1869 4.13585 39.0775C4.03877 38.9681 3.96481 38.8402 3.9184 38.7015C2.85099 35.789 2.30417 32.7116 2.30293 29.6097C2.30293 26.8534 2.81207 24.346 3.80739 22.1678C6.75026 15.7557 13.2763 11.6022 20.4214 11.6022C30.4875 11.6022 38.673 19.6642 38.673 29.5867C38.673 33.3076 35.6201 36.3395 31.8589 36.3395C28.0978 36.3395 25.0449 33.3076 25.0449 29.5867C25.0458 27.1291 22.9882 25.1269 20.4444 25.1269C17.9006 25.1269 15.843 27.1252 15.843 29.5829C15.843 33.5067 17.3034 37.1855 19.9803 39.9418C22.0857 42.1008 24.0955 43.2914 27.2145 44.191C27.8116 44.3518 28.1437 44.9949 27.9887 45.5921C27.9404 45.8345 27.8111 46.0533 27.6221 46.2126C27.4331 46.3719 27.1955 46.4622 26.9484 46.4687Z" fill="#F2F2F2"/>
</svg>
