<svg width="27" height="26" viewBox="0 0 27 26" fill="none" xmlns="http://www.w3.org/2000/svg">
<path fill-rule="evenodd" clip-rule="evenodd" d="M13.5833 25.3863C20.5905 25.3863 26.2709 19.7059 26.2709 12.6988C26.2709 5.69164 20.5905 0.0112305 13.5833 0.0112305C6.57617 0.0112305 0.895752 5.69164 0.895752 12.6988C0.895752 14.0737 1.11447 15.3976 1.519 16.6375C3.84143 9.76516 10.2454 8.639 14.1826 8.639C16.1892 8.639 17.527 8.92566 17.527 8.92566C17.527 8.92566 20.0473 21.3169 10.0473 24.8871C11.1697 25.2121 12.3562 25.3863 13.5833 25.3863ZM4.61227 21.6707C8.43183 14.3144 13.9915 12.4612 13.9915 12.4612C5.75997 12.4612 4.61939 19.5521 4.46134 21.5172C4.51122 21.5688 4.56153 21.6199 4.61227 21.6707Z" fill="url(#paint0_linear_645_27079)"/>
<defs>
<linearGradient id="paint0_linear_645_27079" x1="13.5833" y1="0.0112305" x2="13.5354" y2="25.4342" gradientUnits="userSpaceOnUse">
<stop stop-color="#3D02E6"/>
<stop offset="1" stop-color="#2EDCB7"/>
</linearGradient>
</defs>
</svg>
