<svg width="22" height="21" viewBox="0 0 22 21" fill="none" xmlns="http://www.w3.org/2000/svg">
<path fill-rule="evenodd" clip-rule="evenodd" d="M11.0973 20.9232C16.7907 20.9232 21.4061 16.3078 21.4061 10.6144C21.4061 4.92106 16.7907 0.305664 11.0973 0.305664C5.40397 0.305664 0.788574 4.92106 0.788574 10.6144C0.788574 11.7315 0.966255 12.8071 1.2949 13.8145C3.18197 8.23084 8.38516 7.31585 11.5841 7.31585C13.2145 7.31585 14.3015 7.54876 14.3015 7.54876C14.3015 7.54876 16.3492 17.6167 8.22429 20.5175C9.13624 20.7816 10.1003 20.9232 11.0973 20.9232ZM3.80819 17.9041C6.91162 11.9272 11.4288 10.4214 11.4288 10.4214C4.7409 10.4214 3.81398 16.1824 3.68551 17.7793C3.72605 17.8212 3.76694 17.8628 3.80819 17.9041Z" fill="#8D8D8D"/>
</svg>
