<svg width="16" height="16" viewBox="0 0 16 16" fill="none" xmlns="http://www.w3.org/2000/svg">
<path fill-rule="evenodd" clip-rule="evenodd" d="M12.667 14.333H4.00033C3.38149 14.333 2.78799 14.0872 2.35041 13.6496C1.91282 13.212 1.66699 12.6185 1.66699 11.9997V3.29503C1.66699 2.5837 2.37099 2.13237 2.99033 2.34703C3.07899 2.3777 3.16566 2.42237 3.24833 2.4817L3.36499 2.56504C3.64876 2.76639 3.98824 2.87427 4.33619 2.87367C4.68414 2.87307 5.02325 2.76403 5.30633 2.5617C5.70368 2.27891 6.17928 2.12695 6.66699 2.12695C7.15471 2.12695 7.6303 2.27891 8.02766 2.5617C8.31074 2.76403 8.64984 2.87307 8.99779 2.87367C9.34574 2.87427 9.68522 2.76639 9.96899 2.56504L10.0857 2.4817C10.7477 2.00837 11.667 2.4817 11.667 3.29503V8.33304H14.0003C14.1329 8.33304 14.2601 8.38571 14.3539 8.47948C14.4476 8.57325 14.5003 8.70043 14.5003 8.83304V12.4997C14.5003 12.9859 14.3072 13.4522 13.9634 13.7961C13.6195 14.1399 13.1532 14.333 12.667 14.333ZM11.8337 9.33304V12.4997C11.8337 12.7207 11.9215 12.9327 12.0777 13.089C12.234 13.2452 12.446 13.333 12.667 13.333C12.888 13.333 13.1 13.2452 13.2562 13.089C13.4125 12.9327 13.5003 12.7207 13.5003 12.4997V9.33304H11.8337ZM9.00033 6.4997C9.00033 6.36709 8.94765 6.23992 8.85388 6.14615C8.76011 6.05238 8.63293 5.9997 8.50033 5.9997H4.50033C4.36772 5.9997 4.24054 6.05238 4.14677 6.14615C4.053 6.23992 4.00033 6.36709 4.00033 6.4997C4.00033 6.63231 4.053 6.75949 4.14677 6.85326C4.24054 6.94702 4.36772 6.9997 4.50033 6.9997H8.50033C8.63293 6.9997 8.76011 6.94702 8.85388 6.85326C8.94765 6.75949 9.00033 6.63231 9.00033 6.4997ZM8.33366 8.4997C8.33366 8.36709 8.28098 8.23992 8.18721 8.14615C8.09344 8.05238 7.96627 7.9997 7.83366 7.9997H4.50033C4.36772 7.9997 4.24054 8.05238 4.14677 8.14615C4.053 8.23992 4.00033 8.36709 4.00033 8.4997C4.00033 8.63231 4.053 8.75949 4.14677 8.85326C4.24054 8.94702 4.36772 8.9997 4.50033 8.9997H7.83366C7.96627 8.9997 8.09344 8.94702 8.18721 8.85326C8.28098 8.75949 8.33366 8.63231 8.33366 8.4997ZM8.50033 9.9997C8.63293 9.9997 8.76011 10.0524 8.85388 10.1461C8.94765 10.2399 9.00033 10.3671 9.00033 10.4997C9.00033 10.6323 8.94765 10.7595 8.85388 10.8533C8.76011 10.947 8.63293 10.9997 8.50033 10.9997H4.50033C4.36772 10.9997 4.24054 10.947 4.14677 10.8533C4.053 10.7595 4.00033 10.6323 4.00033 10.4997C4.00033 10.3671 4.053 10.2399 4.14677 10.1461C4.24054 10.0524 4.36772 9.9997 4.50033 9.9997H8.50033Z" fill="#00DAAC"/>
</svg>
