<svg width="22" height="24" viewBox="0 0 22 24" fill="none" xmlns="http://www.w3.org/2000/svg">
<path d="M19.678 1.99254L17.9598 0.274414L16.2417 1.99254L14.5236 0.274414L12.8055 1.99254L11.0873 0.274414L9.3692 1.99254L7.65108 0.274414L5.93295 1.99254L4.21482 0.274414L2.49669 1.99254L0.778564 0.274414V23.1828L2.49669 21.4647L4.21482 23.1828L5.93295 21.4647L7.65108 23.1828L9.3692 21.4647L11.0873 23.1828L12.8055 21.4647L14.5236 23.1828L16.2417 21.4647L17.9598 23.1828L19.678 21.4647L21.3961 23.1828V0.274414L19.678 1.99254ZM19.1053 19.7465H3.0694V3.71067H19.1053V19.7465ZM4.21482 15.1649H17.9598V17.4557H4.21482M4.21482 10.5832H17.9598V12.874H4.21482M4.21482 6.00151H17.9598V8.29234H4.21482V6.00151Z" fill="#8D8D8D"/>
</svg>
