<svg width="46" height="46" viewBox="0 0 46 46" fill="none" xmlns="http://www.w3.org/2000/svg">
<path fill-rule="evenodd" clip-rule="evenodd" d="M38.4451 16.9478C38.1048 16.0525 37.6824 15.1742 37.1754 14.3229C32.4645 6.41259 22.2331 3.81895 14.3228 8.52981C6.41254 13.2407 3.8189 23.4721 8.52976 31.3824C13.2406 39.2927 23.4721 41.8863 31.3823 37.1754C34.7179 35.189 37.1081 32.2209 38.404 28.8592C37.805 28.3292 37.2908 27.7038 36.8615 26.9829C36.2996 26.0394 35.9507 25.046 35.8148 24.0028C35.6785 22.9599 35.7344 21.9488 35.9827 20.9694C36.231 19.99 36.6633 19.074 37.2798 18.2215C37.6188 17.7531 38.0073 17.3285 38.4451 16.9478Z" fill="#0219E6"/>
<path d="M23.0013 23.0002C22.268 23.0002 21.6402 22.7391 21.118 22.2169C20.5957 21.6946 20.3346 21.0669 20.3346 20.3335C20.3346 19.6002 20.5957 18.9724 21.118 18.4502C21.6402 17.928 22.268 17.6669 23.0013 17.6669C23.7346 17.6669 24.3624 17.928 24.8846 18.4502C25.4069 18.9724 25.668 19.6002 25.668 20.3335C25.668 21.0669 25.4069 21.6946 24.8846 22.2169C24.3624 22.7391 23.7346 23.0002 23.0013 23.0002ZM17.668 28.3335V26.4669C17.668 26.0891 17.7653 25.7418 17.96 25.4249C18.1546 25.108 18.4129 24.8664 18.7346 24.7002C19.4235 24.3558 20.1235 24.0973 20.8346 23.9249C21.5457 23.7524 22.268 23.6664 23.0013 23.6669C23.7346 23.6669 24.4569 23.7531 25.168 23.9255C25.8791 24.098 26.5791 24.3562 27.268 24.7002C27.5902 24.8669 27.8486 25.1086 28.0433 25.4255C28.238 25.7424 28.3351 26.0895 28.3346 26.4669V28.3335H17.668Z" fill="white"/>
</svg>
