<svg width="113" height="112" viewBox="0 0 113 112" fill="none" xmlns="http://www.w3.org/2000/svg">
<g filter="url(#filter0_bii_637_18017)">
<circle cx="56.5" cy="56" r="56" fill="#D9D9D9" fill-opacity="0.056"/>
</g>
<path d="M51.2727 62.7203L43.1527 54.6003C42.4682 53.9159 41.6282 53.5737 40.6327 53.5737C39.6371 53.5737 38.766 53.947 38.0193 54.6937C37.3349 55.3781 36.9927 56.2492 36.9927 57.307C36.9927 58.3648 37.3349 59.2359 38.0193 59.9203L48.6593 70.5603C49.3438 71.2448 50.2149 71.587 51.2727 71.587C52.3305 71.587 53.2016 71.2448 53.886 70.5603L75.0727 49.3737C75.7571 48.6892 76.0993 47.8492 76.0993 46.8537C76.0993 45.8581 75.726 44.987 74.9793 44.2403C74.2949 43.5559 73.4238 43.2137 72.366 43.2137C71.3082 43.2137 70.4371 43.5559 69.7527 44.2403L51.2727 62.7203ZM56.4993 93.3337C51.3349 93.3337 46.4816 92.353 41.9393 90.3918C37.3971 88.433 33.446 85.7737 30.086 82.4137C26.726 79.0537 24.0666 75.1025 22.1079 70.5603C20.1466 66.0181 19.166 61.1648 19.166 56.0003C19.166 50.8359 20.1466 45.9825 22.1079 41.4403C24.0666 36.8981 26.726 32.947 30.086 29.587C33.446 26.227 37.3971 23.5664 41.9393 21.6051C46.4816 19.6464 51.3349 18.667 56.4993 18.667C61.6638 18.667 66.5171 19.6464 71.0593 21.6051C75.6016 23.5664 79.5527 26.227 82.9127 29.587C86.2727 32.947 88.9321 36.8981 90.8908 41.4403C92.8521 45.9825 93.8327 50.8359 93.8327 56.0003C93.8327 61.1648 92.8521 66.0181 90.8908 70.5603C88.9321 75.1025 86.2727 79.0537 82.9127 82.4137C79.5527 85.7737 75.6016 88.433 71.0593 90.3918C66.5171 92.353 61.6638 93.3337 56.4993 93.3337Z" fill="#F2F2F2"/>
<defs>
<filter id="filter0_bii_637_18017" x="-12.492" y="-12.992" width="137.984" height="137.984" filterUnits="userSpaceOnUse" color-interpolation-filters="sRGB">
<feFlood flood-opacity="0" result="BackgroundImageFix"/>
<feGaussianBlur in="BackgroundImageFix" stdDeviation="6.496"/>
<feComposite in2="SourceAlpha" operator="in" result="effect1_backgroundBlur_637_18017"/>
<feBlend mode="normal" in="SourceGraphic" in2="effect1_backgroundBlur_637_18017" result="shape"/>
<feColorMatrix in="SourceAlpha" type="matrix" values="0 0 0 0 0 0 0 0 0 0 0 0 0 0 0 0 0 0 127 0" result="hardAlpha"/>
<feOffset dx="-7.46667" dy="7.46667"/>
<feGaussianBlur stdDeviation="3.73333"/>
<feComposite in2="hardAlpha" operator="arithmetic" k2="-1" k3="1"/>
<feColorMatrix type="matrix" values="0 0 0 0 1 0 0 0 0 1 0 0 0 0 1 0 0 0 0.056 0"/>
<feBlend mode="normal" in2="shape" result="effect2_innerShadow_637_18017"/>
<feColorMatrix in="SourceAlpha" type="matrix" values="0 0 0 0 0 0 0 0 0 0 0 0 0 0 0 0 0 0 127 0" result="hardAlpha"/>
<feOffset dx="7.46667" dy="-7.46667"/>
<feGaussianBlur stdDeviation="3.73333"/>
<feComposite in2="hardAlpha" operator="arithmetic" k2="-1" k3="1"/>
<feColorMatrix type="matrix" values="0 0 0 0 0.646745 0 0 0 0 0.646745 0 0 0 0 0.646745 0 0 0 0.056 0"/>
<feBlend mode="normal" in2="effect2_innerShadow_637_18017" result="effect3_innerShadow_637_18017"/>
</filter>
</defs>
</svg>
