<svg width="91" height="90" viewBox="0 0 91 90" fill="none" xmlns="http://www.w3.org/2000/svg">
<path d="M40.2732 51.7203L32.1532 43.6003C31.4687 42.9159 30.6287 42.5737 29.6332 42.5737C28.6376 42.5737 27.7665 42.947 27.0198 43.6937C26.3354 44.3781 25.9932 45.2492 25.9932 46.307C25.9932 47.3648 26.3354 48.2359 27.0198 48.9203L37.6598 59.5603C38.3443 60.2448 39.2154 60.587 40.2732 60.587C41.3309 60.587 42.2021 60.2448 42.8865 59.5603L64.0732 38.3737C64.7576 37.6892 65.0998 36.8492 65.0998 35.8537C65.0998 34.8581 64.7265 33.987 63.9798 33.2403C63.2954 32.5559 62.4243 32.2137 61.3665 32.2137C60.3087 32.2137 59.4376 32.5559 58.7532 33.2403L40.2732 51.7203ZM45.4998 82.3337C40.3354 82.3337 35.4821 81.353 30.9398 79.3918C26.3976 77.433 22.4465 74.7737 19.0865 71.4137C15.7265 68.0537 13.0671 64.1025 11.1084 59.5603C9.14713 55.0181 8.1665 50.1648 8.1665 45.0003C8.1665 39.8359 9.14713 34.9825 11.1084 30.4403C13.0671 25.8981 15.7265 21.947 19.0865 18.587C22.4465 15.227 26.3976 12.5664 30.9398 10.6051C35.4821 8.64637 40.3354 7.66699 45.4998 7.66699C50.6643 7.66699 55.5176 8.64637 60.0598 10.6051C64.6021 12.5664 68.5532 15.227 71.9132 18.587C75.2732 21.947 77.9325 25.8981 79.8913 30.4403C81.8525 34.9825 82.8332 39.8359 82.8332 45.0003C82.8332 50.1648 81.8525 55.0181 79.8913 59.5603C77.9325 64.1025 75.2732 68.0537 71.9132 71.4137C68.5532 74.7737 64.6021 77.433 60.0598 79.3918C55.5176 81.353 50.6643 82.3337 45.4998 82.3337Z" fill="#F2F2F2"/>
</svg>
