<svg width="16" height="16" viewBox="0 0 16 16" fill="none" xmlns="http://www.w3.org/2000/svg">
<path fill-rule="evenodd" clip-rule="evenodd" d="M7.8514 8.97698C7.4054 8.97698 6.96073 8.82965 6.58873 8.53498L3.59873 6.12432C3.3834 5.95098 3.35007 5.63565 3.52273 5.42098C3.69673 5.20698 4.0114 5.17298 4.22607 5.34565L7.2134 7.75365C7.58873 8.05098 8.1174 8.05098 8.4954 7.75098L11.4527 5.34698C11.6674 5.17165 11.9821 5.20498 12.1567 5.41965C12.3307 5.63365 12.2981 5.94832 12.0841 6.12298L9.1214 8.53098C8.74673 8.82832 8.29873 8.97698 7.8514 8.97698Z" fill="#3D02E6"/>
<mask id="mask0_1269_12350" style="mask-type:luminance" maskUnits="userSpaceOnUse" x="0" y="1" width="15" height="14">
<path fill-rule="evenodd" clip-rule="evenodd" d="M0.666748 1.33398H15V14.334H0.666748V1.33398Z" fill="white"/>
</mask>
<g mask="url(#mask0_1269_12350)">
<path fill-rule="evenodd" clip-rule="evenodd" d="M4.55921 13.3341H11.1059C11.1072 13.3327 11.1125 13.3341 11.1165 13.3341C11.8772 13.3341 12.5519 13.0621 13.0692 12.5454C13.6699 11.9474 13.9999 11.0881 13.9999 10.1261V5.54741C13.9999 3.68541 12.7825 2.33407 11.1059 2.33407H4.56055C2.88388 2.33407 1.66655 3.68541 1.66655 5.54741V10.1261C1.66655 11.0881 1.99721 11.9474 2.59721 12.5454C3.11455 13.0621 3.78988 13.3341 4.54988 13.3341H4.55921ZM4.54784 14.334C3.51917 14.334 2.6005 13.9606 1.89117 13.254C1.10117 12.466 0.666504 11.3553 0.666504 10.126V5.54732C0.666504 3.14532 2.3405 1.33398 4.5605 1.33398H11.1058C13.3258 1.33398 14.9998 3.14532 14.9998 5.54732V10.126C14.9998 11.3553 14.5652 12.466 13.7752 13.254C13.0665 13.96 12.1472 14.334 11.1165 14.334H11.1058H4.5605H4.54784Z" fill="#3D02E6"/>
</g>
</svg>
