<svg width="42" height="42" viewBox="0 0 42 42" fill="none" xmlns="http://www.w3.org/2000/svg">
<circle cx="21" cy="21" r="21" fill="#FF5C00" fill-opacity="0.2"/>
<g clip-path="url(#clip0_637_11059)">
<path d="M8.5 17.4307L10.8858 19.8165C16.8146 13.8878 26.4294 13.8878 32.3582 19.8165L34.744 17.4307C27.5031 10.1898 15.7529 10.1898 8.5 17.4307ZM18.0433 26.974L21.622 30.5527L25.2007 26.974C24.7312 26.5032 24.1734 26.1297 23.5593 25.8749C22.9452 25.62 22.2869 25.4889 21.622 25.4889C20.9571 25.4889 20.2988 25.62 19.6847 25.8749C19.0706 26.1297 18.5128 26.5032 18.0433 26.974ZM13.2716 22.2024L15.6575 24.5882C17.2398 23.0071 19.3852 22.119 21.622 22.119C23.8589 22.119 26.0042 23.0071 27.5866 24.5882L29.9724 22.2024C25.3677 17.5977 17.8882 17.5977 13.2716 22.2024Z" fill="#FF5C00"/>
</g>
<defs>
<clipPath id="clip0_637_11059">
<rect width="24" height="24" fill="white" transform="translate(9.5 9)"/>
</clipPath>
</defs>
</svg>
