<svg width="133" height="133" viewBox="0 0 133 133" fill="none" xmlns="http://www.w3.org/2000/svg">
<path fill-rule="evenodd" clip-rule="evenodd" d="M111.52 49.1612C110.533 46.564 109.308 44.0164 107.837 41.5468C94.1718 18.601 64.4928 11.0775 41.547 24.7426C18.6012 38.4076 11.0777 68.0866 24.7428 91.0324C38.4078 113.978 68.0868 121.502 91.0326 107.837C100.708 102.075 107.641 93.465 111.4 83.7137C109.663 82.1764 108.171 80.3621 106.926 78.2708C105.296 75.534 104.284 72.6525 103.89 69.6265C103.494 66.6012 103.657 63.6681 104.377 60.8271C105.097 57.9861 106.351 55.3292 108.139 52.8564C109.123 51.4974 110.25 50.2657 111.52 49.1612Z" fill="#F3903F"/>
<g clip-path="url(#clip0_643_25170)">
<mask id="path-2-inside-1_643_25170" fill="white">
<path d="M63.4623 87.3137C55.1632 86.5885 47.8417 83.5079 43.0699 78.7448C40.3548 76.0297 38.7072 73.0825 37.9646 69.6103C37.6223 68.0323 37.6252 65.41 37.9646 63.8175C39.0002 58.9907 42.1214 54.7672 47.0324 51.5473C58.2351 44.1997 75.396 44.2374 86.4943 51.6343C87.9679 52.6148 88.9193 53.3951 90.2537 54.7091C91.9361 56.3713 93.1196 58.0218 94.367 60.4526C94.4134 60.5397 94.6425 60.6557 94.8775 60.7021C95.6607 60.8646 96.7137 61.4795 97.5578 62.2685C98.2134 62.8777 98.721 63.5449 99.9712 65.4391C101.233 67.3477 106.945 76.1632 107.293 76.7404C107.426 76.9667 107.159 77.3264 106.858 77.3264C106.646 77.3264 106.492 77.1813 106.179 76.6882L102.942 71.6641C97.4302 63.13 97.1314 62.7355 95.5969 61.9668L94.7905 61.5607H92.4206C90.0535 61.5607 90.0506 61.5636 89.9926 61.8131C89.6793 63.1765 89.6213 63.5129 89.6909 63.5768C89.7344 63.6174 91.0775 64.3832 92.6787 65.2766L95.5853 66.9068L95.4054 67.2868C95.3039 67.4957 95.1908 67.6697 95.1502 67.6697C95.1096 67.6697 92.6613 66.3122 89.7112 64.6558C86.7583 63.0024 84.1708 61.5984 83.9619 61.5404C83.1207 61.3084 81.8328 62.2366 81.8328 63.0749C81.8328 63.922 82.0851 64.1714 87.2688 68.4152C90.5031 71.0665 92.3538 72.6561 92.6352 73.0332C93.1515 73.7178 93.6708 74.7273 94.1523 75.9688C94.9935 78.156 96.3656 79.3743 98.6137 79.937L99.3534 80.1227L99.2924 80.5288C99.2752 80.6844 99.2392 80.8373 99.1851 80.9842C99.0894 81.0915 97.5984 80.6158 96.7369 80.201C95.388 79.5541 94.4598 78.6317 93.5489 77.0276C93.1523 77.1469 92.7604 77.2814 92.3741 77.4308C91.2399 77.8427 91.1848 77.8775 90.1115 78.9247C85.54 83.386 78.9842 86.2375 71.0652 87.2063C69.7801 87.3659 64.8285 87.4355 63.4623 87.3137ZM71.3436 85.9416C74.9754 85.4601 77.792 84.7407 80.7421 83.534C83.8372 82.2663 86.7554 80.4447 88.7975 78.507L89.601 77.7412L87.5763 76.7752C85.4123 75.7396 85.1977 75.5685 84.9221 74.6432C84.748 74.063 84.9453 73.4393 85.4964 72.8418L85.9287 72.3748L84.9888 71.6612C84.2462 71.0955 84.0142 70.849 83.8691 70.4719C83.7552 70.1786 83.7165 69.8614 83.7565 69.5493C83.7965 69.2372 83.914 68.9401 84.0983 68.685L84.3825 68.2847L81.4151 67.7626C80.2829 67.5735 79.1552 67.3588 78.0328 67.1186C77.7862 67.0228 77.5657 66.8702 77.3893 66.6731C77.2129 66.476 77.0855 66.24 77.0175 65.9844C76.9537 65.7175 78.4099 58.6165 78.7348 57.6012C78.8482 57.34 79.0177 57.1069 79.2313 56.9184C79.4448 56.7299 79.6972 56.5907 79.9705 56.5105C80.4607 56.4206 89.2094 57.958 89.6445 58.2133C90.3349 58.6136 90.5525 59.2633 90.3349 60.2583L90.2421 60.676H90.7265C90.9934 60.676 91.6257 60.6412 92.1276 60.6035L93.0442 60.531L92.5888 59.6897C91.2138 57.1313 88.7308 54.5612 85.6618 52.5191C84.2288 51.5676 81.1743 50.0621 79.3352 49.4037C76.4782 48.4136 73.5161 47.7575 70.5082 47.4485C68.8403 47.2745 64.4688 47.2745 62.8502 47.4514C58.9661 47.875 55.4417 48.7539 52.3582 50.0679C45.2223 53.1108 40.4216 58.1494 39.1945 63.8958C38.8755 65.3955 38.8464 68.0236 39.1423 69.3899C39.7921 72.4067 41.2106 75.0203 43.5196 77.454C48.2188 82.4056 55.404 85.4485 64.0163 86.1389C65.1679 86.2288 70.1688 86.0954 71.3436 85.9416ZM69.7685 80.5346C69.3247 80.407 68.8751 79.8761 68.7823 79.3743C68.7185 79.0436 68.7939 78.8173 69.2638 77.9065C71.1667 74.2225 71.9934 70.8374 71.9934 66.7241C71.9934 62.75 71.2624 59.6607 69.4436 55.9536C69.052 55.1588 68.733 54.4191 68.733 54.3146C68.733 53.9201 69.0636 53.3487 69.4204 53.1253C69.9107 52.815 70.7316 52.873 71.1261 53.2414C71.2769 53.3864 71.6685 54.0275 71.9963 54.6743C73.2987 57.227 74.1893 60.032 74.6302 62.9502C74.9029 64.7574 74.958 68.1803 74.7404 69.8337C74.3748 72.7637 73.5321 75.6142 72.2458 78.272C71.4626 79.8819 70.9752 80.5462 70.5633 80.5462C70.4643 80.5487 70.3659 80.5633 70.2704 80.5897C70.1011 80.6065 69.9301 80.5877 69.7685 80.5346ZM64.4717 77.7644C63.793 77.5642 63.2998 76.7288 63.4971 76.1022C63.5464 75.9514 63.8655 75.2523 64.2107 74.5503C65.6481 71.6786 66.2597 68.464 65.9772 65.265C65.7336 62.6949 65.2724 61.0734 64.112 58.7006C63.3317 57.1081 63.2969 56.8615 63.7495 56.2233C64.1788 55.6142 65.2549 55.5127 65.8177 56.0319C66.2093 56.3916 67.4276 58.9327 67.8946 60.3714C69.4485 65.1418 69.2092 70.3151 67.2217 74.9216C66.2006 77.3177 65.4841 78.0573 64.4717 77.7644ZM59.0125 74.9535C58.7952 74.8481 58.6036 74.6963 58.4513 74.5089C58.2989 74.3215 58.1895 74.1029 58.1307 73.8687C58.0698 73.596 58.1713 73.2943 58.6731 72.2819C60.5064 68.569 60.5267 64.9894 58.7311 61.3606C57.945 59.7652 57.9276 59.449 58.5948 58.8195C58.9226 58.5091 59.0618 58.454 59.5231 58.454C60.2976 58.454 60.7008 58.8456 61.3911 60.267C62.4557 62.4542 62.8937 64.3513 62.8879 66.7821C62.8879 69.2768 62.4789 70.994 61.3418 73.3001C60.6892 74.6199 60.3672 74.968 59.7174 75.058C59.4775 75.0794 59.2359 75.0436 59.0125 74.9535ZM53.9159 72.3371C53.5218 72.1285 53.2243 71.7748 53.0863 71.3508C52.9615 70.9099 53.0631 70.5589 53.5649 69.7351C54.2089 68.6763 54.3597 68.1106 54.3597 66.7241C54.3597 65.3404 54.2089 64.7719 53.5649 63.7131C53.374 63.4103 53.2109 63.0909 53.0776 62.7588C52.8716 62.0626 53.4518 61.2068 54.2321 61.0589C54.8934 60.9342 55.3489 61.233 55.958 62.1815C56.821 63.5517 57.279 65.1381 57.279 66.7574C57.279 68.3768 56.821 69.9632 55.958 71.3334C55.3344 72.2964 54.6411 72.6387 53.9159 72.3371ZM91.8868 76.6099C92.4757 76.3981 92.9862 76.2009 93.0181 76.1661C93.0529 76.1341 92.9398 75.757 92.7657 75.3277C92.4118 74.4517 92.4699 74.472 91.2167 74.7128C89.8592 74.9738 89.0731 74.7418 87.5908 73.6511C87.1847 73.3523 86.7699 73.1087 86.6625 73.1087C86.5581 73.1087 86.329 73.2624 86.1491 73.4538C85.772 73.8599 85.714 74.4981 86.0215 74.8752C86.2913 75.203 90.0158 76.9754 90.4596 76.9841C90.654 76.9899 91.298 76.8216 91.8868 76.6099ZM91.3009 73.7584C91.852 73.6482 91.9129 73.6105 91.8172 73.4335C91.7128 73.2363 86.561 68.9606 86.1143 68.6995C85.7459 68.4848 85.4471 68.5342 85.1425 68.8619C84.2462 69.8192 84.3506 70.0222 86.6683 71.8004C89.4647 73.9412 89.7606 74.0688 91.3009 73.7584ZM84.3854 67.2868C84.3854 67.2578 83.8024 66.756 83.0859 66.17C81.3222 64.7168 80.9451 64.1743 80.9451 63.101C80.9451 62.2018 81.5427 61.3374 82.5058 60.8384C83.0748 60.5831 83.7129 60.5249 84.3187 60.6731C84.661 60.7833 86.1984 61.6158 88.3305 62.8429L88.7801 63.101L89.1514 61.3432C89.5285 59.5447 89.5372 59.0748 89.1862 58.9646C87.666 58.6736 86.143 58.3971 84.6175 58.1349C80.3447 57.3807 79.8777 57.3372 79.6804 57.6592C79.5731 57.8333 77.9487 65.3636 77.9487 65.6856C77.9487 65.8452 78.0299 66.0453 78.1285 66.1265C78.2271 66.2106 79.6137 66.5094 81.2091 66.7937C84.2897 67.3477 84.3854 67.3623 84.3854 67.2868Z"/>
</mask>
<path d="M63.4623 87.3137C55.1632 86.5885 47.8417 83.5079 43.0699 78.7448C40.3548 76.0297 38.7072 73.0825 37.9646 69.6103C37.6223 68.0323 37.6252 65.41 37.9646 63.8175C39.0002 58.9907 42.1214 54.7672 47.0324 51.5473C58.2351 44.1997 75.396 44.2374 86.4943 51.6343C87.9679 52.6148 88.9193 53.3951 90.2537 54.7091C91.9361 56.3713 93.1196 58.0218 94.367 60.4526C94.4134 60.5397 94.6425 60.6557 94.8775 60.7021C95.6607 60.8646 96.7137 61.4795 97.5578 62.2685C98.2134 62.8777 98.721 63.5449 99.9712 65.4391C101.233 67.3477 106.945 76.1632 107.293 76.7404C107.426 76.9667 107.159 77.3264 106.858 77.3264C106.646 77.3264 106.492 77.1813 106.179 76.6882L102.942 71.6641C97.4302 63.13 97.1314 62.7355 95.5969 61.9668L94.7905 61.5607H92.4206C90.0535 61.5607 90.0506 61.5636 89.9926 61.8131C89.6793 63.1765 89.6213 63.5129 89.6909 63.5768C89.7344 63.6174 91.0775 64.3832 92.6787 65.2766L95.5853 66.9068L95.4054 67.2868C95.3039 67.4957 95.1908 67.6697 95.1502 67.6697C95.1096 67.6697 92.6613 66.3122 89.7112 64.6558C86.7583 63.0024 84.1708 61.5984 83.9619 61.5404C83.1207 61.3084 81.8328 62.2366 81.8328 63.0749C81.8328 63.922 82.0851 64.1714 87.2688 68.4152C90.5031 71.0665 92.3538 72.6561 92.6352 73.0332C93.1515 73.7178 93.6708 74.7273 94.1523 75.9688C94.9935 78.156 96.3656 79.3743 98.6137 79.937L99.3534 80.1227L99.2924 80.5288C99.2752 80.6844 99.2392 80.8373 99.1851 80.9842C99.0894 81.0915 97.5984 80.6158 96.7369 80.201C95.388 79.5541 94.4598 78.6317 93.5489 77.0276C93.1523 77.1469 92.7604 77.2814 92.3741 77.4308C91.2399 77.8427 91.1848 77.8775 90.1115 78.9247C85.54 83.386 78.9842 86.2375 71.0652 87.2063C69.7801 87.3659 64.8285 87.4355 63.4623 87.3137ZM71.3436 85.9416C74.9754 85.4601 77.792 84.7407 80.7421 83.534C83.8372 82.2663 86.7554 80.4447 88.7975 78.507L89.601 77.7412L87.5763 76.7752C85.4123 75.7396 85.1977 75.5685 84.9221 74.6432C84.748 74.063 84.9453 73.4393 85.4964 72.8418L85.9287 72.3748L84.9888 71.6612C84.2462 71.0955 84.0142 70.849 83.8691 70.4719C83.7552 70.1786 83.7165 69.8614 83.7565 69.5493C83.7965 69.2372 83.914 68.9401 84.0983 68.685L84.3825 68.2847L81.4151 67.7626C80.2829 67.5735 79.1552 67.3588 78.0328 67.1186C77.7862 67.0228 77.5657 66.8702 77.3893 66.6731C77.2129 66.476 77.0855 66.24 77.0175 65.9844C76.9537 65.7175 78.4099 58.6165 78.7348 57.6012C78.8482 57.34 79.0177 57.1069 79.2313 56.9184C79.4448 56.7299 79.6972 56.5907 79.9705 56.5105C80.4607 56.4206 89.2094 57.958 89.6445 58.2133C90.3349 58.6136 90.5525 59.2633 90.3349 60.2583L90.2421 60.676H90.7265C90.9934 60.676 91.6257 60.6412 92.1276 60.6035L93.0442 60.531L92.5888 59.6897C91.2138 57.1313 88.7308 54.5612 85.6618 52.5191C84.2288 51.5676 81.1743 50.0621 79.3352 49.4037C76.4782 48.4136 73.5161 47.7575 70.5082 47.4485C68.8403 47.2745 64.4688 47.2745 62.8502 47.4514C58.9661 47.875 55.4417 48.7539 52.3582 50.0679C45.2223 53.1108 40.4216 58.1494 39.1945 63.8958C38.8755 65.3955 38.8464 68.0236 39.1423 69.3899C39.7921 72.4067 41.2106 75.0203 43.5196 77.454C48.2188 82.4056 55.404 85.4485 64.0163 86.1389C65.1679 86.2288 70.1688 86.0954 71.3436 85.9416ZM69.7685 80.5346C69.3247 80.407 68.8751 79.8761 68.7823 79.3743C68.7185 79.0436 68.7939 78.8173 69.2638 77.9065C71.1667 74.2225 71.9934 70.8374 71.9934 66.7241C71.9934 62.75 71.2624 59.6607 69.4436 55.9536C69.052 55.1588 68.733 54.4191 68.733 54.3146C68.733 53.9201 69.0636 53.3487 69.4204 53.1253C69.9107 52.815 70.7316 52.873 71.1261 53.2414C71.2769 53.3864 71.6685 54.0275 71.9963 54.6743C73.2987 57.227 74.1893 60.032 74.6302 62.9502C74.9029 64.7574 74.958 68.1803 74.7404 69.8337C74.3748 72.7637 73.5321 75.6142 72.2458 78.272C71.4626 79.8819 70.9752 80.5462 70.5633 80.5462C70.4643 80.5487 70.3659 80.5633 70.2704 80.5897C70.1011 80.6065 69.9301 80.5877 69.7685 80.5346ZM64.4717 77.7644C63.793 77.5642 63.2998 76.7288 63.4971 76.1022C63.5464 75.9514 63.8655 75.2523 64.2107 74.5503C65.6481 71.6786 66.2597 68.464 65.9772 65.265C65.7336 62.6949 65.2724 61.0734 64.112 58.7006C63.3317 57.1081 63.2969 56.8615 63.7495 56.2233C64.1788 55.6142 65.2549 55.5127 65.8177 56.0319C66.2093 56.3916 67.4276 58.9327 67.8946 60.3714C69.4485 65.1418 69.2092 70.3151 67.2217 74.9216C66.2006 77.3177 65.4841 78.0573 64.4717 77.7644ZM59.0125 74.9535C58.7952 74.8481 58.6036 74.6963 58.4513 74.5089C58.2989 74.3215 58.1895 74.1029 58.1307 73.8687C58.0698 73.596 58.1713 73.2943 58.6731 72.2819C60.5064 68.569 60.5267 64.9894 58.7311 61.3606C57.945 59.7652 57.9276 59.449 58.5948 58.8195C58.9226 58.5091 59.0618 58.454 59.5231 58.454C60.2976 58.454 60.7008 58.8456 61.3911 60.267C62.4557 62.4542 62.8937 64.3513 62.8879 66.7821C62.8879 69.2768 62.4789 70.994 61.3418 73.3001C60.6892 74.6199 60.3672 74.968 59.7174 75.058C59.4775 75.0794 59.2359 75.0436 59.0125 74.9535ZM53.9159 72.3371C53.5218 72.1285 53.2243 71.7748 53.0863 71.3508C52.9615 70.9099 53.0631 70.5589 53.5649 69.7351C54.2089 68.6763 54.3597 68.1106 54.3597 66.7241C54.3597 65.3404 54.2089 64.7719 53.5649 63.7131C53.374 63.4103 53.2109 63.0909 53.0776 62.7588C52.8716 62.0626 53.4518 61.2068 54.2321 61.0589C54.8934 60.9342 55.3489 61.233 55.958 62.1815C56.821 63.5517 57.279 65.1381 57.279 66.7574C57.279 68.3768 56.821 69.9632 55.958 71.3334C55.3344 72.2964 54.6411 72.6387 53.9159 72.3371ZM91.8868 76.6099C92.4757 76.3981 92.9862 76.2009 93.0181 76.1661C93.0529 76.1341 92.9398 75.757 92.7657 75.3277C92.4118 74.4517 92.4699 74.472 91.2167 74.7128C89.8592 74.9738 89.0731 74.7418 87.5908 73.6511C87.1847 73.3523 86.7699 73.1087 86.6625 73.1087C86.5581 73.1087 86.329 73.2624 86.1491 73.4538C85.772 73.8599 85.714 74.4981 86.0215 74.8752C86.2913 75.203 90.0158 76.9754 90.4596 76.9841C90.654 76.9899 91.298 76.8216 91.8868 76.6099ZM91.3009 73.7584C91.852 73.6482 91.9129 73.6105 91.8172 73.4335C91.7128 73.2363 86.561 68.9606 86.1143 68.6995C85.7459 68.4848 85.4471 68.5342 85.1425 68.8619C84.2462 69.8192 84.3506 70.0222 86.6683 71.8004C89.4647 73.9412 89.7606 74.0688 91.3009 73.7584ZM84.3854 67.2868C84.3854 67.2578 83.8024 66.756 83.0859 66.17C81.3222 64.7168 80.9451 64.1743 80.9451 63.101C80.9451 62.2018 81.5427 61.3374 82.5058 60.8384C83.0748 60.5831 83.7129 60.5249 84.3187 60.6731C84.661 60.7833 86.1984 61.6158 88.3305 62.8429L88.7801 63.101L89.1514 61.3432C89.5285 59.5447 89.5372 59.0748 89.1862 58.9646C87.666 58.6736 86.143 58.3971 84.6175 58.1349C80.3447 57.3807 79.8777 57.3372 79.6804 57.6592C79.5731 57.8333 77.9487 65.3636 77.9487 65.6856C77.9487 65.8452 78.0299 66.0453 78.1285 66.1265C78.2271 66.2106 79.6137 66.5094 81.2091 66.7937C84.2897 67.3477 84.3854 67.3623 84.3854 67.2868Z" fill="white" stroke="white" stroke-width="11.603" mask="url(#path-2-inside-1_643_25170)"/>
</g>
<defs>
<clipPath id="clip0_643_25170">
<rect width="69.6182" height="69.6182" fill="white" transform="translate(37.71 31.9087)"/>
</clipPath>
</defs>
</svg>
