<svg width="30" height="30" viewBox="0 0 30 30" fill="none" xmlns="http://www.w3.org/2000/svg">
<g clip-path="url(#clip0_637_23467)">
<path d="M0.9375 15C0.9375 21.1406 4.875 26.3437 10.3125 28.2656V1.73438C4.875 3.65625 0.9375 8.85937 0.9375 15ZM29.0625 15C29.0625 8.85937 25.1719 3.65625 19.6875 1.73438V28.2656C25.1719 26.3437 29.0625 21.1406 29.0625 15Z" fill="#3CBB00"/>
<path d="M10.3125 28.2656C11.7656 28.7812 13.3594 29.0625 15 29.0625C16.6406 29.0625 18.2344 28.7812 19.6875 28.2656V1.73438C18.2344 1.21875 16.6406 0.9375 15 0.9375C13.3594 0.9375 11.7656 1.21875 10.3125 1.73438V28.2656Z" fill="#F9F9F9"/>
</g>
<defs>
<clipPath id="clip0_637_23467">
<rect width="30" height="30" fill="white"/>
</clipPath>
</defs>
</svg>
