<svg width="20" height="21" viewBox="0 0 20 21" fill="none" xmlns="http://www.w3.org/2000/svg">
<path d="M17.5 5.91675C17.5 7.52509 16.1917 8.83342 14.5833 8.83342C12.975 8.83342 11.6667 7.52509 11.6667 5.91675C11.6667 4.30842 12.975 3.00009 14.5833 3.00009C16.1917 3.00009 17.5 4.30842 17.5 5.91675ZM15.8333 10.3251C15.4167 10.4334 15 10.5001 14.5833 10.5001C13.3684 10.4979 12.2039 10.0143 11.3449 9.15523C10.4858 8.29616 10.0022 7.13165 10 5.91675C10 4.69175 10.4833 3.58342 11.25 2.75842C11.0988 2.57304 10.9081 2.42373 10.6918 2.32137C10.4756 2.21902 10.2392 2.16619 10 2.16675C9.08333 2.16675 8.33333 2.91675 8.33333 3.83342V4.07509C5.85833 4.80842 4.16667 7.08342 4.16667 9.66675V14.6668L2.5 16.3334V17.1668H17.5V16.3334L15.8333 14.6668V10.3251ZM10 19.6668C10.925 19.6668 11.6667 18.9251 11.6667 18.0001H8.33333C8.33333 18.4421 8.50893 18.866 8.82149 19.1786C9.13405 19.4912 9.55797 19.6668 10 19.6668Z" fill="#222222"/>
</svg>
