<svg width="46" height="46" viewBox="0 0 46 46" fill="none" xmlns="http://www.w3.org/2000/svg">
<path fill-rule="evenodd" clip-rule="evenodd" d="M38.4451 16.9478C38.1048 16.0525 37.6824 15.1742 37.1754 14.3229C32.4645 6.41259 22.2331 3.81895 14.3228 8.52981C6.41254 13.2407 3.8189 23.4721 8.52976 31.3824C13.2406 39.2927 23.4721 41.8863 31.3823 37.1754C34.7179 35.189 37.1081 32.2209 38.404 28.8592C37.805 28.3292 37.2908 27.7038 36.8615 26.9829C36.2996 26.0394 35.9507 25.046 35.8148 24.0028C35.6785 22.9599 35.7344 21.9488 35.9827 20.9694C36.231 19.99 36.6633 19.074 37.2798 18.2215C37.6188 17.7531 38.0073 17.3285 38.4451 16.9478Z" fill="#F3903F"/>
<g clip-path="url(#clip0_637_19543)">
<mask id="path-2-inside-1_637_19543" fill="white">
<path d="M21.8781 30.1001C19.0171 29.8501 16.4931 28.7881 14.8481 27.1461C13.9121 26.2101 13.3441 25.1941 13.0881 23.9971C12.9701 23.4531 12.9711 22.5491 13.0881 22.0001C13.4451 20.3361 14.5211 18.8801 16.2141 17.7701C20.0761 15.2371 25.9921 15.2501 29.8181 17.8001C30.3261 18.1381 30.6541 18.4071 31.1141 18.8601C31.6941 19.4331 32.1021 20.0021 32.5321 20.8401C32.5481 20.8701 32.6271 20.9101 32.7081 20.9261C32.9781 20.9821 33.3411 21.1941 33.6321 21.4661C33.8581 21.6761 34.0331 21.9061 34.4641 22.5591C34.8991 23.2171 36.8681 26.2561 36.9881 26.4551C37.0341 26.5331 36.9421 26.6571 36.8381 26.6571C36.7651 26.6571 36.7121 26.6071 36.6041 26.4371L35.4881 24.7051C33.5881 21.7631 33.4851 21.6271 32.9561 21.3621L32.6781 21.2221H31.8611C31.0451 21.2221 31.0441 21.2231 31.0241 21.3091C30.9161 21.7791 30.8961 21.8951 30.9201 21.9171C30.9351 21.9311 31.3981 22.1951 31.9501 22.5031L32.9521 23.0651L32.8901 23.1961C32.8551 23.2681 32.8161 23.3281 32.8021 23.3281C32.7881 23.3281 31.9441 22.8601 30.9271 22.2891C29.9091 21.7191 29.0171 21.2351 28.9451 21.2151C28.6551 21.1351 28.2111 21.4551 28.2111 21.7441C28.2111 22.0361 28.2981 22.1221 30.0851 23.5851C31.2001 24.4991 31.8381 25.0471 31.9351 25.1771C32.1131 25.4131 32.2921 25.7611 32.4581 26.1891C32.7481 26.9431 33.2211 27.3631 33.9961 27.5571L34.2511 27.6211L34.2301 27.7611C34.2242 27.8147 34.2118 27.8674 34.1931 27.9181C34.1601 27.9551 33.6461 27.7911 33.3491 27.6481C32.8841 27.4251 32.5641 27.1071 32.2501 26.5541C32.1134 26.5952 31.9783 26.6416 31.8451 26.6931C31.4541 26.8351 31.4351 26.8471 31.0651 27.2081C29.4891 28.7461 27.2291 29.7291 24.4991 30.0631C24.0561 30.1181 22.3491 30.1421 21.8781 30.1001ZM24.5951 29.6271C25.8471 29.4611 26.8181 29.2131 27.8351 28.7971C28.9021 28.3601 29.9081 27.7321 30.6121 27.0641L30.8891 26.8001L30.1911 26.4671C29.4451 26.1101 29.3711 26.0511 29.2761 25.7321C29.2161 25.5321 29.2841 25.3171 29.4741 25.1111L29.6231 24.9501L29.2991 24.7041C29.0431 24.5091 28.9631 24.4241 28.9131 24.2941C28.8738 24.193 28.8605 24.0836 28.8743 23.976C28.8881 23.8684 28.9286 23.766 28.9921 23.6781L29.0901 23.5401L28.0671 23.3601C27.6768 23.2949 27.2881 23.2209 26.9011 23.1381C26.8161 23.1051 26.7401 23.0524 26.6793 22.9845C26.6185 22.9165 26.5746 22.8352 26.5511 22.7471C26.5291 22.6551 27.0311 20.2071 27.1431 19.8571C27.1822 19.767 27.2407 19.6866 27.3143 19.6217C27.3879 19.5567 27.4749 19.5087 27.5691 19.4811C27.7381 19.4501 30.7541 19.9801 30.9041 20.0681C31.1421 20.2061 31.2171 20.4301 31.1421 20.7731L31.1101 20.9171H31.2771C31.3691 20.9171 31.5871 20.9051 31.7601 20.8921L32.0761 20.8671L31.9191 20.5771C31.4451 19.6951 30.5891 18.8091 29.5311 18.1051C29.0371 17.7771 27.9841 17.2581 27.3501 17.0311C26.3652 16.6898 25.3441 16.4636 24.3071 16.3571C23.7321 16.2971 22.2251 16.2971 21.6671 16.3581C20.3281 16.5041 19.1131 16.8071 18.0501 17.2601C15.5901 18.3091 13.9351 20.0461 13.5121 22.0271C13.4021 22.5441 13.3921 23.4501 13.4941 23.9211C13.7181 24.9611 14.2071 25.8621 15.0031 26.7011C16.6231 28.4081 19.1001 29.4571 22.0691 29.6951C22.4661 29.7261 24.1901 29.6801 24.5951 29.6271ZM24.0521 27.7631C23.8991 27.7191 23.7441 27.5361 23.7121 27.3631C23.6901 27.2491 23.7161 27.1711 23.8781 26.8571C24.5341 25.5871 24.8191 24.4201 24.8191 23.0021C24.8191 21.6321 24.5671 20.5671 23.9401 19.2891C23.8051 19.0151 23.6951 18.7601 23.6951 18.7241C23.6951 18.5881 23.8091 18.3911 23.9321 18.3141C24.1011 18.2071 24.3841 18.2271 24.5201 18.3541C24.5721 18.4041 24.7071 18.6251 24.8201 18.8481C25.2691 19.7281 25.5761 20.6951 25.7281 21.7011C25.8221 22.3241 25.8411 23.5041 25.7661 24.0741C25.6401 25.0842 25.3496 26.0668 24.9061 26.9831C24.6361 27.5381 24.4681 27.7671 24.3261 27.7671C24.292 27.7679 24.2581 27.773 24.2251 27.7821C24.1668 27.7879 24.1078 27.7814 24.0521 27.7631ZM22.2261 26.8081C21.9921 26.7391 21.8221 26.4511 21.8901 26.2351C21.9071 26.1831 22.0171 25.9421 22.1361 25.7001C22.6317 24.7101 22.8425 23.6019 22.7451 22.4991C22.6611 21.6131 22.5021 21.0541 22.1021 20.2361C21.8331 19.6871 21.8211 19.6021 21.9771 19.3821C22.1251 19.1721 22.4961 19.1371 22.6901 19.3161C22.8251 19.4401 23.2451 20.3161 23.4061 20.8121C23.9418 22.4566 23.8593 24.24 23.1741 25.8281C22.8221 26.6541 22.5751 26.9091 22.2261 26.8081ZM20.3441 25.8391C20.2692 25.8027 20.2032 25.7504 20.1507 25.6858C20.0981 25.6212 20.0604 25.5458 20.0401 25.4651C20.0191 25.3711 20.0541 25.2671 20.2271 24.9181C20.8591 23.6381 20.8661 22.4041 20.2471 21.1531C19.9761 20.6031 19.9701 20.4941 20.2001 20.2771C20.3131 20.1701 20.3611 20.1511 20.5201 20.1511C20.7871 20.1511 20.9261 20.2861 21.1641 20.7761C21.5311 21.5301 21.6821 22.1841 21.6801 23.0221C21.6801 23.8821 21.5391 24.4741 21.1471 25.2691C20.9221 25.7241 20.8111 25.8441 20.5871 25.8751C20.5044 25.8825 20.4211 25.8701 20.3441 25.8391ZM18.5871 24.9371C18.4513 24.8652 18.3487 24.7432 18.3011 24.5971C18.2581 24.4451 18.2931 24.3241 18.4661 24.0401C18.6881 23.6751 18.7401 23.4801 18.7401 23.0021C18.7401 22.5251 18.6881 22.3291 18.4661 21.9641C18.4003 21.8597 18.3441 21.7496 18.2981 21.6351C18.2271 21.3951 18.4271 21.1001 18.6961 21.0491C18.9241 21.0061 19.0811 21.1091 19.2911 21.4361C19.5886 21.9084 19.7465 22.4553 19.7465 23.0136C19.7465 23.5718 19.5886 24.1187 19.2911 24.5911C19.0761 24.9231 18.8371 25.0411 18.5871 24.9371ZM31.6771 26.4101C31.8801 26.3371 32.0561 26.2691 32.0671 26.2571C32.0791 26.2461 32.0401 26.1161 31.9801 25.9681C31.8581 25.6661 31.8781 25.6731 31.4461 25.7561C30.9781 25.8461 30.7071 25.7661 30.1961 25.3901C30.0561 25.2871 29.9131 25.2031 29.8761 25.2031C29.8401 25.2031 29.7611 25.2561 29.6991 25.3221C29.5691 25.4621 29.5491 25.6821 29.6551 25.8121C29.7481 25.9251 31.0321 26.5361 31.1851 26.5391C31.2521 26.5411 31.4741 26.4831 31.6771 26.4101ZM31.4751 25.4271C31.6651 25.3891 31.6861 25.3761 31.6531 25.3151C31.6171 25.2471 29.8411 23.7731 29.6871 23.6831C29.5601 23.6091 29.4571 23.6261 29.3521 23.7391C29.0431 24.0691 29.0791 24.1391 29.8781 24.7521C30.8421 25.4901 30.9441 25.5341 31.4751 25.4271ZM29.0911 23.1961C29.0911 23.1861 28.8901 23.0131 28.6431 22.8111C28.0351 22.3101 27.9051 22.1231 27.9051 21.7531C27.9051 21.4431 28.1111 21.1451 28.4431 20.9731C28.6393 20.885 28.8593 20.865 29.0681 20.9161C29.1861 20.9541 29.7161 21.2411 30.4511 21.6641L30.6061 21.7531L30.7341 21.1471C30.8641 20.5271 30.8671 20.3651 30.7461 20.3271C30.222 20.2268 29.697 20.1314 29.1711 20.0411C27.6981 19.7811 27.5371 19.7661 27.4691 19.8771C27.4321 19.9371 26.8721 22.5331 26.8721 22.6441C26.8721 22.6991 26.9001 22.7681 26.9341 22.7961C26.9681 22.8251 27.4461 22.9281 27.9961 23.0261C29.0581 23.2171 29.0911 23.2221 29.0911 23.1961Z"/>
</mask>
<path d="M21.8781 30.1001C19.0171 29.8501 16.4931 28.7881 14.8481 27.1461C13.9121 26.2101 13.3441 25.1941 13.0881 23.9971C12.9701 23.4531 12.9711 22.5491 13.0881 22.0001C13.4451 20.3361 14.5211 18.8801 16.2141 17.7701C20.0761 15.2371 25.9921 15.2501 29.8181 17.8001C30.3261 18.1381 30.6541 18.4071 31.1141 18.8601C31.6941 19.4331 32.1021 20.0021 32.5321 20.8401C32.5481 20.8701 32.6271 20.9101 32.7081 20.9261C32.9781 20.9821 33.3411 21.1941 33.6321 21.4661C33.8581 21.6761 34.0331 21.9061 34.4641 22.5591C34.8991 23.2171 36.8681 26.2561 36.9881 26.4551C37.0341 26.5331 36.9421 26.6571 36.8381 26.6571C36.7651 26.6571 36.7121 26.6071 36.6041 26.4371L35.4881 24.7051C33.5881 21.7631 33.4851 21.6271 32.9561 21.3621L32.6781 21.2221H31.8611C31.0451 21.2221 31.0441 21.2231 31.0241 21.3091C30.9161 21.7791 30.8961 21.8951 30.9201 21.9171C30.9351 21.9311 31.3981 22.1951 31.9501 22.5031L32.9521 23.0651L32.8901 23.1961C32.8551 23.2681 32.8161 23.3281 32.8021 23.3281C32.7881 23.3281 31.9441 22.8601 30.9271 22.2891C29.9091 21.7191 29.0171 21.2351 28.9451 21.2151C28.6551 21.1351 28.2111 21.4551 28.2111 21.7441C28.2111 22.0361 28.2981 22.1221 30.0851 23.5851C31.2001 24.4991 31.8381 25.0471 31.9351 25.1771C32.1131 25.4131 32.2921 25.7611 32.4581 26.1891C32.7481 26.9431 33.2211 27.3631 33.9961 27.5571L34.2511 27.6211L34.2301 27.7611C34.2242 27.8147 34.2118 27.8674 34.1931 27.9181C34.1601 27.9551 33.6461 27.7911 33.3491 27.6481C32.8841 27.4251 32.5641 27.1071 32.2501 26.5541C32.1134 26.5952 31.9783 26.6416 31.8451 26.6931C31.4541 26.8351 31.4351 26.8471 31.0651 27.2081C29.4891 28.7461 27.2291 29.7291 24.4991 30.0631C24.0561 30.1181 22.3491 30.1421 21.8781 30.1001ZM24.5951 29.6271C25.8471 29.4611 26.8181 29.2131 27.8351 28.7971C28.9021 28.3601 29.9081 27.7321 30.6121 27.0641L30.8891 26.8001L30.1911 26.4671C29.4451 26.1101 29.3711 26.0511 29.2761 25.7321C29.2161 25.5321 29.2841 25.3171 29.4741 25.1111L29.6231 24.9501L29.2991 24.7041C29.0431 24.5091 28.9631 24.4241 28.9131 24.2941C28.8738 24.193 28.8605 24.0836 28.8743 23.976C28.8881 23.8684 28.9286 23.766 28.9921 23.6781L29.0901 23.5401L28.0671 23.3601C27.6768 23.2949 27.2881 23.2209 26.9011 23.1381C26.8161 23.1051 26.7401 23.0524 26.6793 22.9845C26.6185 22.9165 26.5746 22.8352 26.5511 22.7471C26.5291 22.6551 27.0311 20.2071 27.1431 19.8571C27.1822 19.767 27.2407 19.6866 27.3143 19.6217C27.3879 19.5567 27.4749 19.5087 27.5691 19.4811C27.7381 19.4501 30.7541 19.9801 30.9041 20.0681C31.1421 20.2061 31.2171 20.4301 31.1421 20.7731L31.1101 20.9171H31.2771C31.3691 20.9171 31.5871 20.9051 31.7601 20.8921L32.0761 20.8671L31.9191 20.5771C31.4451 19.6951 30.5891 18.8091 29.5311 18.1051C29.0371 17.7771 27.9841 17.2581 27.3501 17.0311C26.3652 16.6898 25.3441 16.4636 24.3071 16.3571C23.7321 16.2971 22.2251 16.2971 21.6671 16.3581C20.3281 16.5041 19.1131 16.8071 18.0501 17.2601C15.5901 18.3091 13.9351 20.0461 13.5121 22.0271C13.4021 22.5441 13.3921 23.4501 13.4941 23.9211C13.7181 24.9611 14.2071 25.8621 15.0031 26.7011C16.6231 28.4081 19.1001 29.4571 22.0691 29.6951C22.4661 29.7261 24.1901 29.6801 24.5951 29.6271ZM24.0521 27.7631C23.8991 27.7191 23.7441 27.5361 23.7121 27.3631C23.6901 27.2491 23.7161 27.1711 23.8781 26.8571C24.5341 25.5871 24.8191 24.4201 24.8191 23.0021C24.8191 21.6321 24.5671 20.5671 23.9401 19.2891C23.8051 19.0151 23.6951 18.7601 23.6951 18.7241C23.6951 18.5881 23.8091 18.3911 23.9321 18.3141C24.1011 18.2071 24.3841 18.2271 24.5201 18.3541C24.5721 18.4041 24.7071 18.6251 24.8201 18.8481C25.2691 19.7281 25.5761 20.6951 25.7281 21.7011C25.8221 22.3241 25.8411 23.5041 25.7661 24.0741C25.6401 25.0842 25.3496 26.0668 24.9061 26.9831C24.6361 27.5381 24.4681 27.7671 24.3261 27.7671C24.292 27.7679 24.2581 27.773 24.2251 27.7821C24.1668 27.7879 24.1078 27.7814 24.0521 27.7631ZM22.2261 26.8081C21.9921 26.7391 21.8221 26.4511 21.8901 26.2351C21.9071 26.1831 22.0171 25.9421 22.1361 25.7001C22.6317 24.7101 22.8425 23.6019 22.7451 22.4991C22.6611 21.6131 22.5021 21.0541 22.1021 20.2361C21.8331 19.6871 21.8211 19.6021 21.9771 19.3821C22.1251 19.1721 22.4961 19.1371 22.6901 19.3161C22.8251 19.4401 23.2451 20.3161 23.4061 20.8121C23.9418 22.4566 23.8593 24.24 23.1741 25.8281C22.8221 26.6541 22.5751 26.9091 22.2261 26.8081ZM20.3441 25.8391C20.2692 25.8027 20.2032 25.7504 20.1507 25.6858C20.0981 25.6212 20.0604 25.5458 20.0401 25.4651C20.0191 25.3711 20.0541 25.2671 20.2271 24.9181C20.8591 23.6381 20.8661 22.4041 20.2471 21.1531C19.9761 20.6031 19.9701 20.4941 20.2001 20.2771C20.3131 20.1701 20.3611 20.1511 20.5201 20.1511C20.7871 20.1511 20.9261 20.2861 21.1641 20.7761C21.5311 21.5301 21.6821 22.1841 21.6801 23.0221C21.6801 23.8821 21.5391 24.4741 21.1471 25.2691C20.9221 25.7241 20.8111 25.8441 20.5871 25.8751C20.5044 25.8825 20.4211 25.8701 20.3441 25.8391ZM18.5871 24.9371C18.4513 24.8652 18.3487 24.7432 18.3011 24.5971C18.2581 24.4451 18.2931 24.3241 18.4661 24.0401C18.6881 23.6751 18.7401 23.4801 18.7401 23.0021C18.7401 22.5251 18.6881 22.3291 18.4661 21.9641C18.4003 21.8597 18.3441 21.7496 18.2981 21.6351C18.2271 21.3951 18.4271 21.1001 18.6961 21.0491C18.9241 21.0061 19.0811 21.1091 19.2911 21.4361C19.5886 21.9084 19.7465 22.4553 19.7465 23.0136C19.7465 23.5718 19.5886 24.1187 19.2911 24.5911C19.0761 24.9231 18.8371 25.0411 18.5871 24.9371ZM31.6771 26.4101C31.8801 26.3371 32.0561 26.2691 32.0671 26.2571C32.0791 26.2461 32.0401 26.1161 31.9801 25.9681C31.8581 25.6661 31.8781 25.6731 31.4461 25.7561C30.9781 25.8461 30.7071 25.7661 30.1961 25.3901C30.0561 25.2871 29.9131 25.2031 29.8761 25.2031C29.8401 25.2031 29.7611 25.2561 29.6991 25.3221C29.5691 25.4621 29.5491 25.6821 29.6551 25.8121C29.7481 25.9251 31.0321 26.5361 31.1851 26.5391C31.2521 26.5411 31.4741 26.4831 31.6771 26.4101ZM31.4751 25.4271C31.6651 25.3891 31.6861 25.3761 31.6531 25.3151C31.6171 25.2471 29.8411 23.7731 29.6871 23.6831C29.5601 23.6091 29.4571 23.6261 29.3521 23.7391C29.0431 24.0691 29.0791 24.1391 29.8781 24.7521C30.8421 25.4901 30.9441 25.5341 31.4751 25.4271ZM29.0911 23.1961C29.0911 23.1861 28.8901 23.0131 28.6431 22.8111C28.0351 22.3101 27.9051 22.1231 27.9051 21.7531C27.9051 21.4431 28.1111 21.1451 28.4431 20.9731C28.6393 20.885 28.8593 20.865 29.0681 20.9161C29.1861 20.9541 29.7161 21.2411 30.4511 21.6641L30.6061 21.7531L30.7341 21.1471C30.8641 20.5271 30.8671 20.3651 30.7461 20.3271C30.222 20.2268 29.697 20.1314 29.1711 20.0411C27.6981 19.7811 27.5371 19.7661 27.4691 19.8771C27.4321 19.9371 26.8721 22.5331 26.8721 22.6441C26.8721 22.6991 26.9001 22.7681 26.9341 22.7961C26.9681 22.8251 27.4461 22.9281 27.9961 23.0261C29.0581 23.2171 29.0911 23.2221 29.0911 23.1961Z" fill="white" stroke="white" stroke-width="4" mask="url(#path-2-inside-1_637_19543)"/>
</g>
<defs>
<clipPath id="clip0_637_19543">
<rect width="24" height="24" fill="white" transform="translate(13 11)"/>
</clipPath>
</defs>
</svg>
