<svg width="46" height="46" viewBox="0 0 46 46" fill="none" xmlns="http://www.w3.org/2000/svg">
<circle cx="23" cy="23" r="23" fill="#F5F5F5"/>
<g clip-path="url(#clip0_637_18630)">
<path d="M17 16V30H24V31H16V15H24.7109L29 19.2891V25H28V20H24V16H17ZM25 16.7109V19H27.2891L25 16.7109ZM18 19H23V20H18V19ZM27 21V22H18V21H27ZM18 24V23H27V24H18ZM18 26V25H24V26H18ZM18 28V27H24V28H18ZM27 26H32V27H27V26ZM27 29V28H32V29H27ZM27 31V30H32V31H27ZM25 27V26H26V27H25ZM25 29V28H26V29H25ZM25 31V30H26V31H25Z" fill="black"/>
</g>
<defs>
<clipPath id="clip0_637_18630">
<rect width="16" height="16" fill="white" transform="translate(16 15)"/>
</clipPath>
</defs>
</svg>
