<svg width="46" height="47" viewBox="0 0 46 47" fill="none" xmlns="http://www.w3.org/2000/svg">
<path fill-rule="evenodd" clip-rule="evenodd" d="M38.4451 17.6529C38.1048 16.7575 37.6824 15.8793 37.1754 15.0279C32.4645 7.11767 22.2331 4.52403 14.3228 9.23489C6.41254 13.9457 3.8189 24.1772 8.52976 32.0875C13.2406 39.9977 23.4721 42.5914 31.3823 37.8805C34.7179 35.8941 37.1081 32.926 38.404 29.5643C37.805 29.0343 37.2908 28.4088 36.8615 27.6879C36.2996 26.7444 35.9507 25.7511 35.8148 24.7079C35.6785 23.665 35.7344 22.6538 35.9827 21.6744C36.231 20.695 36.6633 19.7791 37.2798 18.9266C37.6188 18.4582 38.0073 18.0336 38.4451 17.6529Z" fill="#E44710"/>
<path d="M13 24C13 29.52 17.48 34 23 34C28.52 34 33 29.52 33 24C33 18.48 28.52 14 23 14C17.48 14 13 18.48 13 24ZM31 24C31 28.42 27.42 32 23 32C18.58 32 15 28.42 15 24C15 19.58 18.58 16 23 16C27.42 16 31 19.58 31 24ZM19 24L23 20L24.41 21.41L22.83 23H27V25H22.83L24.42 26.59L23 28L19 24Z" fill="white"/>
</svg>
