<svg width="20" height="20" viewBox="0 0 20 20" fill="none" xmlns="http://www.w3.org/2000/svg">
<g clip-path="url(#clip0_866_139)">
<path d="M1.56295 2.61152C1.56295 2.14708 1.74745 1.70166 2.07586 1.37326C2.40427 1.04485 2.84968 0.860352 3.31412 0.860352L17.3235 0.860352C17.7879 0.860352 18.2333 1.04485 18.5617 1.37326C18.8901 1.70166 19.0746 2.14708 19.0746 2.61152V17.7883C19.0746 18.2528 18.8901 18.6982 18.5617 19.0266C18.2333 19.355 17.7879 19.5395 17.3235 19.5395H3.31412C2.84968 19.5395 2.40427 19.355 2.07586 19.0266C1.74745 18.6982 1.56295 18.2528 1.56295 17.7883V16.0371H0.979231C0.824418 16.0371 0.675946 15.9756 0.566476 15.8662C0.457007 15.7567 0.395508 15.6082 0.395508 15.4534C0.395508 15.2986 0.457007 15.1501 0.566476 15.0407C0.675946 14.9312 0.824418 14.8697 0.979231 14.8697H1.56295V10.7836H0.979231C0.824418 10.7836 0.675946 10.7221 0.566476 10.6127C0.457007 10.5032 0.395508 10.3547 0.395508 10.1999C0.395508 10.0451 0.457007 9.89663 0.566476 9.78716C0.675946 9.6777 0.824418 9.6162 0.979231 9.6162H1.56295V5.53014H0.979231C0.824418 5.53014 0.675946 5.46864 0.566476 5.35917C0.457007 5.2497 0.395508 5.10123 0.395508 4.94641C0.395508 4.7916 0.457007 4.64313 0.566476 4.53366C0.675946 4.42419 0.824418 4.36269 0.979231 4.36269H1.56295V2.61152ZM3.31412 2.0278C3.15931 2.0278 3.01084 2.0893 2.90137 2.19877C2.7919 2.30824 2.7304 2.45671 2.7304 2.61152V17.7883C2.7304 17.9431 2.7919 18.0916 2.90137 18.2011C3.01084 18.3105 3.15931 18.372 3.31412 18.372H17.3235C17.4783 18.372 17.6268 18.3105 17.7362 18.2011C17.8457 18.0916 17.9072 17.9431 17.9072 17.7883V2.61152C17.9072 2.45671 17.8457 2.30824 17.7362 2.19877C17.6268 2.0893 17.4783 2.0278 17.3235 2.0278H3.31412Z" fill="#8D8D8D"/>
<path d="M16.1559 7.8641C16.3107 7.8641 16.4592 7.9256 16.5687 8.03507C16.6782 8.14454 16.7397 8.29301 16.7397 8.44782V11.9502C16.7397 12.105 16.6782 12.2534 16.5687 12.3629C16.4592 12.4724 16.3107 12.5339 16.1559 12.5339C16.0011 12.5339 15.8526 12.4724 15.7432 12.3629C15.6337 12.2534 15.5722 12.105 15.5722 11.9502V8.44782C15.5722 8.29301 15.6337 8.14454 15.7432 8.03507C15.8526 7.9256 16.0011 7.8641 16.1559 7.8641ZM6.03184 6.0709C6.08607 6.01654 6.15048 5.97342 6.2214 5.94399C6.29231 5.91456 6.36834 5.89941 6.44512 5.89941C6.5219 5.89941 6.59792 5.91456 6.66884 5.94399C6.73976 5.97342 6.80417 6.01654 6.85839 6.0709L8.13091 7.34342C8.72382 6.92264 9.43288 6.6966 10.1599 6.6966C10.887 6.6966 11.596 6.92264 12.189 7.34342L13.4615 6.0709C13.5711 5.96145 13.7197 5.90002 13.8746 5.90013C14.0295 5.90024 14.178 5.96188 14.2874 6.07149C14.3969 6.1811 14.4583 6.32969 14.4582 6.48459C14.4581 6.63949 14.3965 6.788 14.2869 6.89746L13.0143 8.16997C13.8782 9.38061 13.8782 11.0185 13.0143 12.228L14.2869 13.5005C14.3965 13.61 14.4581 13.7585 14.4582 13.9134C14.4583 14.0683 14.3969 14.2169 14.2874 14.3265C14.178 14.4361 14.0295 14.4977 13.8746 14.4979C13.7197 14.498 13.5711 14.4365 13.4615 14.3271L12.189 13.0546C11.5961 13.4755 10.887 13.7017 10.1599 13.7017C9.43284 13.7017 8.72375 13.4755 8.13091 13.0546L6.85839 14.3271C6.80412 14.3814 6.73969 14.4244 6.66878 14.4538C6.59787 14.4831 6.52187 14.4983 6.44512 14.4983C6.36837 14.4983 6.29236 14.4831 6.22145 14.4538C6.15054 14.4244 6.08611 14.3814 6.03184 14.3271C5.97757 14.2728 5.93452 14.2084 5.90515 14.1375C5.87578 14.0666 5.86066 13.9906 5.86066 13.9138C5.86066 13.8371 5.87578 13.7611 5.90515 13.6901C5.93452 13.6192 5.97757 13.5548 6.03184 13.5005L7.30436 12.228C6.88358 11.6351 6.65754 10.926 6.65754 10.199C6.65754 9.47195 6.88358 8.76288 7.30436 8.16997L6.03184 6.89746C5.97748 6.84323 5.93435 6.77882 5.90493 6.7079C5.8755 6.63699 5.86035 6.56096 5.86035 6.48418C5.86035 6.4074 5.8755 6.33137 5.90493 6.26046C5.93435 6.18954 5.97748 6.12513 6.03184 6.0709ZM8.50916 8.54822C8.28616 8.76361 8.10828 9.02125 7.98591 9.30612C7.86354 9.59099 7.79913 9.89737 7.79644 10.2074C7.79374 10.5174 7.85282 10.8249 7.97022 11.1118C8.08762 11.3988 8.26099 11.6595 8.48022 11.8787C8.69945 12.0979 8.96015 12.2713 9.2471 12.3887C9.53405 12.5061 9.8415 12.5652 10.1515 12.5625C10.4616 12.5598 10.7679 12.4954 11.0528 12.373C11.3377 12.2506 11.5953 12.0728 11.8107 11.8498C12.236 11.4094 12.4714 10.8196 12.466 10.2074C12.4607 9.59519 12.2152 9.00958 11.7823 8.57667C11.3493 8.14376 10.7637 7.8982 10.1515 7.89288C9.53933 7.88756 8.94953 8.12291 8.50916 8.54822Z" fill="#8D8D8D"/>
</g>
<defs>
<clipPath id="clip0_866_139">
<rect width="18.6791" height="18.6791" fill="white" transform="translate(0.395508 0.860352)"/>
</clipPath>
</defs>
</svg>
