<svg width="46" height="46" viewBox="0 0 46 46" fill="none" xmlns="http://www.w3.org/2000/svg">
<circle cx="23" cy="23" r="23" fill="#3D02E6" fill-opacity="0.2"/>
<path d="M22.9997 10.9521L13.1426 15.3331V21.9045C13.1426 27.9831 17.3483 33.6674 22.9997 35.0474C28.6511 33.6674 32.8569 27.9831 32.8569 21.9045V15.3331L22.9997 10.9521ZM22.9997 17.5236C24.5331 17.5236 26.0664 18.7283 26.0664 20.2617V21.9045C26.7235 21.9045 27.3807 22.5617 27.3807 23.3283V27.1617C27.3807 27.8188 26.7235 28.476 25.9569 28.476H19.9331C19.2759 28.476 18.6188 27.8188 18.6188 27.0521V23.2188C18.6188 22.5617 19.2759 21.9045 19.9331 21.9045V20.2617C19.9331 18.7283 21.4664 17.5236 22.9997 17.5236ZM22.9997 18.8379C22.1235 18.8379 21.3569 19.3855 21.3569 20.2617V21.9045H24.6426V20.2617C24.6426 19.3855 23.8759 18.8379 22.9997 18.8379Z" fill="#3D02E6"/>
</svg>
