<svg width="22" height="22" viewBox="0 0 22 22" fill="none" xmlns="http://www.w3.org/2000/svg">
<mask id="mask0_709_9880" style="mask-type:luminance" maskUnits="userSpaceOnUse" x="1" y="2" width="19" height="19">
<path fill-rule="evenodd" clip-rule="evenodd" d="M1.83301 2.75049H19.7071V20.6246H1.83301V2.75049Z" fill="white"/>
</mask>
<g mask="url(#mask0_709_9880)">
<path fill-rule="evenodd" clip-rule="evenodd" d="M9.90421 13.5832L13.2565 19.0218C13.4031 19.2601 13.6323 19.2574 13.7249 19.2446C13.8175 19.2317 14.0402 19.1749 14.1209 18.9045L18.3128 4.74656C18.3861 4.49631 18.2514 4.32581 18.1909 4.26531C18.1322 4.20481 17.9645 4.07556 17.7215 4.14431L3.55354 8.29314C3.28496 8.37197 3.22629 8.59747 3.21346 8.69006C3.20062 8.78447 3.19696 9.01822 3.43437 9.16764L8.93529 12.6079L13.7955 7.69639C14.0622 7.42689 14.4976 7.42414 14.768 7.69089C15.0385 7.95764 15.0403 8.39397 14.7735 8.66347L9.90421 13.5832ZM13.6534 20.6251C13.0154 20.6251 12.4305 20.3006 12.0859 19.7432L8.53196 13.9765L2.70562 10.3327C2.07771 9.93947 1.74954 9.23914 1.85129 8.50306C1.95212 7.76697 2.45721 7.18214 3.16671 6.97405L17.3347 2.82522C17.9865 2.63456 18.685 2.81514 19.1653 3.29364C19.6456 3.77672 19.8244 4.48256 19.63 5.13706L15.4381 19.2941C15.2282 20.0063 14.6415 20.5096 13.9073 20.6076C13.8211 20.6186 13.7377 20.6251 13.6534 20.6251Z" fill="white"/>
</g>
</svg>
