<svg width="26" height="26" viewBox="0 0 26 26" fill="none" xmlns="http://www.w3.org/2000/svg">
<path d="M18.6874 16.2502C18.0792 16.2532 17.4795 16.3928 16.9324 16.6586C16.3854 16.9244 15.905 17.3096 15.5267 17.7858L9.58737 14.0727C9.80384 13.374 9.80384 12.6263 9.58737 11.9277L15.5267 8.21454C16.1296 8.961 16.9772 9.47 17.9193 9.65137C18.8615 9.83275 19.8375 9.67479 20.6744 9.20549C21.5112 8.73618 22.155 7.98582 22.4916 7.08732C22.8282 6.18882 22.8359 5.20018 22.5134 4.29653C22.1909 3.39288 21.5589 2.63255 20.7295 2.15023C19.9 1.6679 18.9267 1.49472 17.9818 1.66135C17.0369 1.82798 16.1814 2.32368 15.567 3.06063C14.9526 3.79757 14.6188 4.7282 14.6249 5.68767C14.6287 6.051 14.6834 6.412 14.7874 6.76017L8.848 10.4733C8.32365 9.8132 7.60694 9.33258 6.79721 9.09805C5.98748 8.86352 5.12485 8.88669 4.32888 9.16436C3.53292 9.44203 2.84305 9.96045 2.3549 10.6477C1.86674 11.335 1.60449 12.1572 1.60449 13.0002C1.60449 13.8432 1.86674 14.6653 2.3549 15.3526C2.84305 16.0399 3.53292 16.5583 4.32888 16.836C5.12485 17.1136 5.98748 17.1368 6.79721 16.9023C7.60694 16.6678 8.32365 16.1871 8.848 15.527L14.7874 19.2402C14.6834 19.5883 14.6287 19.9493 14.6249 20.3127C14.6249 21.1162 14.8631 21.9016 15.3095 22.5697C15.7559 23.2377 16.3904 23.7584 17.1327 24.0659C17.875 24.3734 18.6919 24.4539 19.4799 24.2971C20.268 24.1404 20.9918 23.7534 21.56 23.1853C22.1281 22.6171 22.5151 21.8933 22.6718 21.1052C22.8286 20.3172 22.7481 19.5003 22.4406 18.758C22.1332 18.0157 21.6125 17.3812 20.9444 16.9348C20.2763 16.4884 19.4909 16.2502 18.6874 16.2502ZM18.6874 3.25017C19.1695 3.25017 19.6407 3.39312 20.0416 3.66096C20.4424 3.92879 20.7548 4.30948 20.9393 4.75487C21.1238 5.20027 21.1721 5.69037 21.078 6.1632C20.984 6.63603 20.7518 7.07035 20.4109 7.41124C20.0701 7.75213 19.6357 7.98428 19.1629 8.07833C18.6901 8.17238 18.2 8.12411 17.7546 7.93962C17.3092 7.75513 16.9285 7.44271 16.6607 7.04187C16.3928 6.64102 16.2499 6.16976 16.2499 5.68767C16.2499 5.0412 16.5067 4.42121 16.9638 3.96409C17.4209 3.50697 18.0409 3.25017 18.6874 3.25017ZM5.68737 15.4377C5.20528 15.4377 4.73402 15.2947 4.33317 15.0269C3.93233 14.759 3.61991 14.3784 3.43542 13.933C3.25093 13.4876 3.20266 12.9975 3.29671 12.5246C3.39076 12.0518 3.62291 11.6175 3.9638 11.2766C4.30469 10.9357 4.73901 10.7036 5.21184 10.6095C5.68467 10.5155 6.17477 10.5637 6.62017 10.7482C7.06556 10.9327 7.44625 11.2451 7.71408 11.646C7.98192 12.0468 8.12487 12.5181 8.12487 13.0002C8.12487 13.6466 7.86807 14.2666 7.41095 14.7237C6.95383 15.1809 6.33384 15.4377 5.68737 15.4377ZM18.6874 22.7502C18.2053 22.7502 17.734 22.6072 17.3332 22.3394C16.9323 22.0715 16.6199 21.6909 16.4354 21.2455C16.2509 20.8001 16.2027 20.31 16.2967 19.8371C16.3908 19.3643 16.6229 18.93 16.9638 18.5891C17.3047 18.2482 17.739 18.0161 18.2118 17.922C18.6847 17.8279 19.1748 17.8762 19.6202 18.0607C20.0656 18.2452 20.4462 18.5576 20.7141 18.9585C20.9819 19.3593 21.1249 19.8306 21.1249 20.3127C21.1249 20.9591 20.8681 21.5791 20.4109 22.0362C19.9538 22.4934 19.3338 22.7502 18.6874 22.7502Z" fill="#F2F2F2"/>
</svg>
