<svg width="124" height="11" viewBox="0 0 124 11" fill="none" xmlns="http://www.w3.org/2000/svg">
<path d="M14.0539 8.48978C13.8936 8.48978 13.7448 8.46689 13.6074 8.4211C13.1724 8.32952 12.8633 8.06624 12.6802 7.63125C12.5428 7.24204 12.5772 6.80705 12.7832 6.32627C13.0122 5.84549 13.3098 5.30748 13.6761 4.71222C13.8135 4.50617 13.9394 4.30013 14.0539 4.09408C14.1912 3.86513 14.3057 3.65909 14.3973 3.47593C14.4431 3.40725 14.4774 3.35001 14.5003 3.30422C14.5232 3.23554 14.5461 3.17831 14.569 3.13252C13.8821 3.01804 13.0808 2.99515 12.1651 3.06383C11.2722 3.10962 10.2648 3.28133 9.14302 3.57896C8.15857 3.83079 7.09398 4.16276 5.94927 4.57486C4.82745 4.96406 3.63694 5.43339 2.37776 5.98286C2.12592 6.07444 1.87408 6.07444 1.62224 5.98286C1.37041 5.89128 1.18725 5.71957 1.07278 5.46774C0.935415 5.2159 0.923968 4.95261 1.03844 4.67788C1.15291 4.38026 1.33607 4.18565 1.5879 4.09408C2.86998 3.52172 4.09483 3.02949 5.26244 2.61739C6.45294 2.1824 7.57476 1.83899 8.6279 1.58715C11.4439 0.877427 13.7448 0.762955 15.5305 1.24374C16.0571 1.3811 16.4234 1.70162 16.6295 2.2053C16.8355 2.70897 16.7897 3.26988 16.4921 3.88803C16.1945 4.50617 15.8396 5.14722 15.4275 5.81115C15.4046 5.85694 15.3703 5.91417 15.3245 5.98286C15.2787 6.05154 15.2329 6.13167 15.1871 6.22325C15.7137 6.10878 16.4921 5.87983 17.5223 5.53642C18.5526 5.193 19.972 4.68933 21.7807 4.02539C22.0325 3.93382 22.2844 3.95671 22.5362 4.09408C22.8109 4.20855 22.9941 4.40315 23.0857 4.67788C23.2001 4.92972 23.2001 5.193 23.0857 5.46774C22.9712 5.71957 22.7651 5.90273 22.4675 6.0172C21.4144 6.38351 20.4528 6.71548 19.5828 7.0131C18.7128 7.31073 17.9344 7.56256 17.2476 7.76861C16.3318 8.04335 15.6336 8.23795 15.1528 8.35242C14.672 8.444 14.3057 8.48978 14.0539 8.48978ZM34.2764 8.48978C34.1162 8.48978 33.9673 8.46689 33.83 8.4211C33.395 8.32952 33.0859 8.06624 32.9028 7.63125C32.7654 7.24204 32.7997 6.80705 33.0058 6.32627C33.2347 5.84549 33.5323 5.30748 33.8987 4.71222C34.036 4.50617 34.1619 4.30013 34.2764 4.09408C34.4138 3.86513 34.5283 3.65909 34.6198 3.47593C34.6656 3.40725 34.7 3.35001 34.7229 3.30422C34.7457 3.23554 34.7686 3.17831 34.7915 3.13252C34.1047 3.01804 33.3034 2.99515 32.3876 3.06383C31.4948 3.10962 30.4874 3.28133 29.3656 3.57896C28.3811 3.83079 27.3165 4.16276 26.1718 4.57486C25.05 4.96406 23.8595 5.43339 22.6003 5.98286C22.3485 6.07444 22.0966 6.07444 21.8448 5.98286C21.593 5.89128 21.4098 5.71957 21.2953 5.46774C21.158 5.2159 21.1465 4.95261 21.261 4.67788C21.3755 4.38026 21.5586 4.18565 21.8105 4.09408C23.0925 3.52172 24.3174 3.02949 25.485 2.61739C26.6755 2.1824 27.7973 1.83899 28.8505 1.58715C31.6665 0.877427 33.9673 0.762955 35.7531 1.24374C36.2797 1.3811 36.646 1.70162 36.852 2.2053C37.0581 2.70897 37.0123 3.26988 36.7147 3.88803C36.417 4.50617 36.0622 5.14722 35.6501 5.81115C35.6272 5.85694 35.5928 5.91417 35.547 5.98286C35.5013 6.05154 35.4555 6.13167 35.4097 6.22325C35.9362 6.10878 36.7147 5.87983 37.7449 5.53642C38.7751 5.193 40.1946 4.68933 42.0032 4.02539C42.2551 3.93382 42.5069 3.95671 42.7588 4.09408C43.0335 4.20855 43.2166 4.40315 43.3082 4.67788C43.4227 4.92972 43.4227 5.193 43.3082 5.46774C43.1937 5.71957 42.9877 5.90273 42.6901 6.0172C41.6369 6.38351 40.6754 6.71548 39.8054 7.0131C38.9354 7.31073 38.157 7.56256 37.4702 7.76861C36.5544 8.04335 35.8561 8.23795 35.3753 8.35242C34.8946 8.444 34.5282 8.48978 34.2764 8.48978ZM47.0125 7.80296C46.8981 7.80296 46.8065 7.79151 46.7378 7.76861C46.3715 7.67704 46.1082 7.53967 45.9479 7.35652C45.8106 7.15047 45.719 6.99021 45.6732 6.87574C45.513 6.37206 45.5702 5.85694 45.8449 5.33037C46.1197 4.78091 46.4745 4.20855 46.9095 3.6133C47.0469 3.43014 47.1728 3.23554 47.2873 3.02949C47.4246 2.80055 47.5391 2.60595 47.6307 2.44569C47.6536 2.42279 47.6879 2.377 47.7337 2.30832C47.5963 2.35411 47.4246 2.42279 47.2186 2.51437C47.0354 2.60595 46.8179 2.74331 46.5661 2.92647C46.154 3.1783 45.719 3.51027 45.2611 3.92237C44.8032 4.31157 44.3339 4.72367 43.8531 5.15866C43.7386 5.25024 43.6127 5.35326 43.4754 5.46774C43.3609 5.58221 43.2464 5.69668 43.1319 5.81115C42.9259 5.9943 42.6855 6.08588 42.4108 6.08588C42.1132 6.06299 41.8728 5.93707 41.6896 5.70813C41.4836 5.50208 41.392 5.26169 41.4149 4.98696C41.4378 4.68933 41.5522 4.44894 41.7583 4.26578C41.8728 4.15131 41.9987 4.03684 42.136 3.92237C42.2505 3.8079 42.365 3.70487 42.4795 3.6133C43.2121 2.94936 43.9332 2.34266 44.643 1.7932C45.3527 1.22084 46.051 0.78585 46.7378 0.488224C47.4246 0.190597 48.0886 0.133362 48.7296 0.316516C49.1188 0.408094 49.3935 0.568354 49.5538 0.797297C49.737 1.00335 49.84 1.1865 49.8629 1.34676C50.0689 1.85044 50.0231 2.38845 49.7255 2.96081C49.4279 3.51027 49.0501 4.11697 48.5922 4.78091C48.5465 4.8267 48.4892 4.90683 48.4205 5.0213C48.3747 5.11287 48.3175 5.20445 48.2488 5.29603C48.5922 5.15866 49.0387 4.98696 49.5881 4.78091C50.1376 4.57486 50.8015 4.32302 51.5799 4.02539C51.8776 3.93382 52.1523 3.95671 52.4041 4.09408C52.656 4.20855 52.8277 4.40315 52.9193 4.67788C53.0337 4.92972 53.0223 5.193 52.8849 5.46774C52.7705 5.71957 52.5873 5.90273 52.3355 6.0172C51.6028 6.26904 50.9389 6.49798 50.3437 6.70403C49.7484 6.91008 49.2447 7.09323 48.8326 7.25349C48.6037 7.34507 48.3976 7.4252 48.2145 7.49388C48.0542 7.53967 47.9054 7.58546 47.768 7.63125C47.6078 7.67704 47.4704 7.72283 47.3559 7.76861C47.2415 7.79151 47.127 7.80296 47.0125 7.80296ZM54.6498 10.7907C54.4895 10.7907 54.3292 10.7678 54.169 10.722C54.0087 10.6991 53.8485 10.6762 53.6882 10.6533C53.2761 10.5388 52.9899 10.2984 52.8297 9.93213C52.6236 9.47424 52.6236 8.92478 52.8297 8.28374C53.0586 7.6198 53.4249 6.77271 53.9286 5.74247C54.0202 5.55931 54.1117 5.35326 54.2033 5.12432C54.3178 4.89538 54.4208 4.67788 54.5124 4.47183C54.2148 4.5863 53.8942 4.78091 53.5508 5.05564C53.2303 5.30748 52.8983 5.57076 52.5549 5.84549C52.326 6.00575 52.0741 6.07443 51.7994 6.05154C51.5018 6.00575 51.2614 5.87983 51.0782 5.67378C50.918 5.44484 50.8607 5.193 50.9065 4.91827C50.9294 4.64354 51.0439 4.40315 51.2499 4.1971C51.5705 3.96816 51.9024 3.71632 52.2458 3.44159C52.6122 3.16686 52.9785 2.93791 53.3448 2.75476C54.2834 2.27398 55.142 2.14806 55.9204 2.377C56.2867 2.44569 56.5614 2.67463 56.7446 3.06383C56.9277 3.43014 56.9163 3.88803 56.7102 4.43749C56.5271 4.98696 56.2066 5.73102 55.7487 6.66969C55.6342 6.94442 55.5083 7.21915 55.3709 7.49388C55.2565 7.76861 55.142 8.0319 55.0275 8.28374C55.0046 8.37531 54.9703 8.45544 54.9245 8.52413C54.9016 8.59281 54.8787 8.66149 54.8558 8.73017C55.3366 8.66149 56.0349 8.4211 56.9506 8.009C57.8893 7.57401 59.1485 6.72692 60.7282 5.46774C61.5753 4.8038 62.3422 4.16276 63.0291 3.54461C63.7159 2.90357 64.2654 2.377 64.6775 1.96491C65.0896 1.55281 65.2956 1.34676 65.2956 1.34676C65.5703 1.02624 65.9023 0.923216 66.2915 1.03769C66.4747 1.06058 66.6235 1.14071 66.7379 1.27808C66.8524 1.39255 66.944 1.50702 67.0127 1.62149C67.1729 1.94201 67.1844 2.31977 67.047 2.75476C66.9325 3.16686 66.6807 3.84224 66.2915 4.78091C66.1541 5.07853 66.0168 5.37616 65.8794 5.67378C65.7649 5.97141 65.6505 6.24614 65.536 6.49798C65.5131 6.58956 65.4902 6.66969 65.4673 6.73837C65.4673 6.78416 65.4559 6.82995 65.433 6.87574C65.868 6.80705 66.3258 6.6239 66.8066 6.32627C67.3103 6.00575 67.7911 5.65089 68.249 5.26169C68.7298 4.87248 69.1304 4.54052 69.4509 4.26578C69.6799 4.05974 69.9317 3.96816 70.2064 3.99105C70.4812 4.01395 70.7216 4.12842 70.9276 4.33447C71.1108 4.56341 71.1909 4.81525 71.168 5.08998C71.168 5.36471 71.0535 5.6051 70.8246 5.81115C70.1149 6.4293 69.3822 7.0131 68.6267 7.56257C67.8941 8.11203 67.15 8.52413 66.3945 8.79886C65.6619 9.0507 64.9178 9.08504 64.1623 8.90188C63.796 8.74162 63.5327 8.51268 63.3725 8.21505C63.2351 7.89453 63.1893 7.53967 63.2351 7.15047C63.3038 6.76126 63.4412 6.28048 63.6472 5.70813C63.3954 5.93707 63.1321 6.15457 62.8574 6.36061C62.6055 6.56666 62.3308 6.79561 62.0332 7.04744C58.8738 9.54292 56.4126 10.7907 54.6498 10.7907ZM82.2337 8.48978C82.0735 8.48978 81.9247 8.46689 81.7873 8.4211C81.3523 8.32952 81.0432 8.06624 80.8601 7.63125C80.7227 7.24204 80.757 6.80705 80.9631 6.32627C81.192 5.84549 81.4897 5.30748 81.856 4.71222C81.9933 4.50617 82.1193 4.30013 82.2337 4.09408C82.3711 3.86513 82.4856 3.65909 82.5771 3.47593C82.6229 3.40725 82.6573 3.35001 82.6802 3.30422C82.7031 3.23554 82.726 3.17831 82.7488 3.13252C82.062 3.01804 81.2607 2.99515 80.3449 3.06383C79.4521 3.10962 78.4447 3.28133 77.3229 3.57896C76.3384 3.83079 75.2739 4.16276 74.1291 4.57486C73.0073 4.96406 71.8168 5.43339 70.5576 5.98286C70.3058 6.07444 70.054 6.07444 69.8021 5.98286C69.5503 5.89128 69.3671 5.71957 69.2527 5.46774C69.1153 5.2159 69.1038 4.95261 69.2183 4.67788C69.3328 4.38026 69.5159 4.18565 69.7678 4.09408C71.0499 3.52172 72.2747 3.02949 73.4423 2.61739C74.6328 2.1824 75.7546 1.83899 76.8078 1.58715C79.6238 0.877427 81.9247 0.762955 83.7104 1.24374C84.237 1.3811 84.6033 1.70162 84.8093 2.2053C85.0154 2.70897 84.9696 3.26988 84.672 3.88803C84.3743 4.50617 84.0195 5.14722 83.6074 5.81115C83.5845 5.85694 83.5501 5.91417 83.5044 5.98286C83.4586 6.05154 83.4128 6.13167 83.367 6.22325C83.8936 6.10878 84.672 5.87983 85.7022 5.53642C86.7325 5.193 88.1519 4.68933 89.9606 4.02539C90.2124 3.93382 90.4642 3.95671 90.7161 4.09408C90.9908 4.20855 91.174 4.40315 91.2655 4.67788C91.38 4.92972 91.38 5.193 91.2655 5.46774C91.1511 5.71957 90.945 5.90273 90.6474 6.0172C89.5942 6.38351 88.6327 6.71548 87.7627 7.0131C86.8927 7.31073 86.1143 7.56256 85.4275 7.76861C84.5117 8.04335 83.8134 8.23795 83.3327 8.35242C82.8519 8.444 82.4856 8.48978 82.2337 8.48978ZM98.2323 8.8332C97.9575 8.8332 97.7286 8.75307 97.5455 8.59281C97.1791 8.29518 97.0761 7.91743 97.2364 7.45954C97.2364 7.43665 97.3165 7.16191 97.4768 6.63535C97.6599 6.10878 97.866 5.51352 98.0949 4.84959C98.2094 4.46039 98.3124 4.12842 98.404 3.85369C98.4956 3.55606 98.5757 3.29278 98.6444 3.06383C98.0262 3.29278 97.2707 3.57896 96.3778 3.92237C95.485 4.24289 94.5463 4.5863 93.5618 4.95261C92.6003 5.31892 91.6616 5.67378 90.7458 6.0172C90.494 6.10878 90.2422 6.09733 89.9903 5.98286C89.7156 5.84549 89.521 5.63944 89.4065 5.36471C89.3149 5.11287 89.3378 4.86104 89.4752 4.6092C89.5897 4.33447 89.7843 4.13987 90.059 4.02539C91.0893 3.65909 92.1538 3.28133 93.2528 2.89213C94.3517 2.48003 95.3705 2.10227 96.3092 1.75886C97.2478 1.39255 98.0148 1.09492 98.61 0.86598C99.2053 0.637036 99.5029 0.522565 99.5029 0.522565C99.6174 0.499671 99.7319 0.488224 99.8463 0.488224C99.9608 0.46533 100.064 0.476777 100.155 0.522565C100.476 0.568353 100.705 0.751508 100.842 1.07203C100.957 1.25518 101.002 1.49557 100.98 1.7932C100.98 2.06793 100.922 2.46858 100.808 2.99515C100.739 3.29278 100.648 3.62474 100.533 3.99105C100.442 4.33447 100.316 4.73512 100.155 5.193C100.133 5.28458 100.11 5.36471 100.087 5.43339C100.064 5.50208 100.041 5.58221 100.018 5.67378C100.934 5.17011 102.056 4.64354 103.384 4.09408C103.635 3.97961 103.887 3.97961 104.139 4.09408C104.414 4.18565 104.597 4.35736 104.688 4.6092C104.826 4.86104 104.837 5.12432 104.723 5.39905C104.608 5.67378 104.425 5.86839 104.173 5.98286C103.143 6.44074 102.216 6.87574 101.392 7.28783C100.59 7.69993 99.9494 8.0319 99.4686 8.28374C98.9878 8.53557 98.7474 8.66149 98.7474 8.66149C98.61 8.77596 98.4383 8.8332 98.2323 8.8332ZM106.497 10.7907C106.337 10.7907 106.177 10.7678 106.017 10.722C105.856 10.6991 105.696 10.6762 105.536 10.6533C105.124 10.5388 104.837 10.2984 104.677 9.93213C104.471 9.47424 104.471 8.92478 104.677 8.28374C104.906 7.6198 105.272 6.77271 105.776 5.74247C105.868 5.55931 105.959 5.35326 106.051 5.12432C106.165 4.89538 106.268 4.67788 106.36 4.47183C106.062 4.5863 105.742 4.78091 105.398 5.05564C105.078 5.30748 104.746 5.57076 104.402 5.84549C104.174 6.00575 103.922 6.07443 103.647 6.05154C103.349 6.00575 103.109 5.87983 102.926 5.67378C102.766 5.44484 102.708 5.193 102.754 4.91827C102.777 4.64354 102.891 4.40315 103.098 4.1971C103.418 3.96816 103.75 3.71632 104.093 3.44159C104.46 3.16686 104.826 2.93791 105.192 2.75476C106.131 2.27398 106.99 2.14806 107.768 2.377C108.134 2.44569 108.409 2.67463 108.592 3.06383C108.775 3.43014 108.764 3.88803 108.558 4.43749C108.375 4.98696 108.054 5.73102 107.596 6.66969C107.482 6.94442 107.356 7.21915 107.218 7.49388C107.104 7.76861 106.99 8.0319 106.875 8.28374C106.852 8.37531 106.818 8.45544 106.772 8.52413C106.749 8.59281 106.726 8.66149 106.703 8.73017C107.184 8.66149 107.882 8.4211 108.798 8.009C109.737 7.57401 110.996 6.72692 112.576 5.46774C113.423 4.8038 114.19 4.16276 114.877 3.54461C115.563 2.90357 116.113 2.377 116.525 1.96491C116.937 1.55281 117.143 1.34676 117.143 1.34676C117.418 1.02624 117.75 0.923216 118.139 1.03769C118.322 1.06058 118.471 1.14071 118.586 1.27808C118.7 1.39255 118.792 1.50702 118.86 1.62149C119.02 1.94201 119.032 2.31977 118.895 2.75476C118.78 3.16686 118.528 3.84224 118.139 4.78091C118.002 5.07853 117.864 5.37616 117.727 5.67378C117.612 5.97141 117.498 6.24614 117.384 6.49798C117.361 6.58956 117.338 6.66969 117.315 6.73837C117.315 6.78416 117.303 6.82995 117.281 6.87574C117.716 6.80705 118.173 6.6239 118.654 6.32627C119.158 6.00575 119.639 5.65089 120.097 5.26169C120.577 4.87248 120.978 4.54052 121.298 4.26578C121.527 4.05974 121.779 3.96816 122.054 3.99105C122.329 4.01395 122.569 4.12842 122.775 4.33447C122.958 4.56341 123.038 4.81525 123.016 5.08998C123.016 5.36471 122.901 5.6051 122.672 5.81115C121.962 6.4293 121.23 7.0131 120.474 7.56257C119.742 8.11203 118.998 8.52413 118.242 8.79886C117.509 9.0507 116.765 9.08504 116.01 8.90188C115.644 8.74162 115.38 8.51268 115.22 8.21505C115.083 7.89453 115.037 7.53967 115.083 7.15047C115.151 6.76126 115.289 6.28048 115.495 5.70813C115.243 5.93707 114.98 6.15457 114.705 6.36061C114.453 6.56666 114.178 6.79561 113.881 7.04744C110.721 9.54292 108.26 10.7907 106.497 10.7907Z" fill="black"/>
</svg>
