<svg width="46" height="46" viewBox="0 0 46 46" fill="none" xmlns="http://www.w3.org/2000/svg">
<path fill-rule="evenodd" clip-rule="evenodd" d="M38.4451 16.9478C38.1048 16.0525 37.6824 15.1742 37.1754 14.3229C32.4645 6.41259 22.2331 3.81895 14.3228 8.52981C6.41254 13.2407 3.8189 23.4721 8.52976 31.3824C13.2406 39.2927 23.4721 41.8863 31.3823 37.1754C34.7179 35.189 37.1081 32.2209 38.404 28.8592C37.805 28.3292 37.2908 27.7038 36.8615 26.9829C36.2996 26.0394 35.9507 25.046 35.8148 24.0028C35.6785 22.9599 35.7344 21.9488 35.9827 20.9694C36.231 19.99 36.6633 19.074 37.2798 18.2215C37.6188 17.7531 38.0073 17.3285 38.4451 16.9478Z" fill="#0219E6"/>
<path d="M31.4062 28.4372C31.4062 28.5947 31.3437 28.7457 31.2323 28.857C31.121 28.9684 30.97 29.0309 30.8125 29.0309H14.1875C14.03 29.0309 13.879 28.9684 13.7677 28.857C13.6563 28.7457 13.5938 28.5947 13.5938 28.4372C13.5938 28.2797 13.6563 28.1287 13.7677 28.0173C13.879 27.906 14.03 27.8434 14.1875 27.8434H30.8125C30.97 27.8434 31.121 27.906 31.2323 28.0173C31.3437 28.1287 31.4062 28.2797 31.4062 28.4372ZM14.2098 20.288C14.1744 20.1635 14.1806 20.0309 14.2275 19.9104C14.2744 19.7898 14.3594 19.6878 14.4695 19.62L22.1883 14.87C22.2817 14.8114 22.3897 14.7803 22.5 14.7803C22.6103 14.7803 22.7183 14.8114 22.8117 14.87L30.5305 19.62C30.6401 19.688 30.7247 19.7898 30.7713 19.9101C30.8179 20.0304 30.8241 20.1627 30.7889 20.2868C30.7537 20.4109 30.679 20.5202 30.5761 20.5981C30.4732 20.676 30.3478 20.7182 30.2188 20.7184H28.4375V25.4684H29.625C29.7825 25.4684 29.9335 25.531 30.0448 25.6423C30.1562 25.7537 30.2188 25.9047 30.2188 26.0622C30.2188 26.2197 30.1562 26.3707 30.0448 26.482C29.9335 26.5934 29.7825 26.6559 29.625 26.6559H15.375C15.2175 26.6559 15.0665 26.5934 14.9552 26.482C14.8438 26.3707 14.7812 26.2197 14.7812 26.0622C14.7812 25.9047 14.8438 25.7537 14.9552 25.6423C15.0665 25.531 15.2175 25.4684 15.375 25.4684H16.5625V20.7184H14.7812C14.6521 20.7186 14.5265 20.6766 14.4234 20.5989C14.3203 20.5213 14.2453 20.4121 14.2098 20.288ZM23.6875 24.8747C23.6875 25.0322 23.7501 25.1832 23.8614 25.2945C23.9728 25.4059 24.1238 25.4684 24.2812 25.4684C24.4387 25.4684 24.5897 25.4059 24.7011 25.2945C24.8124 25.1832 24.875 25.0322 24.875 24.8747V21.3122C24.875 21.1547 24.8124 21.0037 24.7011 20.8923C24.5897 20.781 24.4387 20.7184 24.2812 20.7184C24.1238 20.7184 23.9728 20.781 23.8614 20.8923C23.7501 21.0037 23.6875 21.1547 23.6875 21.3122V24.8747ZM20.125 24.8747C20.125 25.0322 20.1876 25.1832 20.2989 25.2945C20.4103 25.4059 20.5613 25.4684 20.7188 25.4684C20.8762 25.4684 21.0272 25.4059 21.1386 25.2945C21.2499 25.1832 21.3125 25.0322 21.3125 24.8747V21.3122C21.3125 21.1547 21.2499 21.0037 21.1386 20.8923C21.0272 20.781 20.8762 20.7184 20.7188 20.7184C20.5613 20.7184 20.4103 20.781 20.2989 20.8923C20.1876 21.0037 20.125 21.1547 20.125 21.3122V24.8747Z" fill="white"/>
</svg>
