<svg width="46" height="46" viewBox="0 0 46 46" fill="none" xmlns="http://www.w3.org/2000/svg">
<circle cx="23" cy="23" r="23" fill="#FCB41C" fill-opacity="0.2"/>
<path d="M23 34L22.75 31H22.5C20.1333 31 18.125 30.175 16.475 28.525C14.825 26.875 14 24.8667 14 22.5C14 20.1333 14.825 18.125 16.475 16.475C18.125 14.825 20.1333 14 22.5 14C23.6833 14 24.7873 14.2207 25.812 14.662C26.8373 15.104 27.7377 15.7123 28.513 16.487C29.2877 17.2623 29.8957 18.1623 30.337 19.187C30.779 20.2123 31 21.3167 31 22.5C31 23.75 30.796 24.95 30.388 26.1C29.9793 27.25 29.421 28.3167 28.713 29.3C28.0043 30.2833 27.1627 31.175 26.188 31.975C25.2127 32.775 24.15 33.45 23 34ZM22.475 27.975C22.7583 27.975 23 27.875 23.2 27.675C23.4 27.475 23.5 27.2333 23.5 26.95C23.5 26.6667 23.4 26.425 23.2 26.225C23 26.025 22.7583 25.925 22.475 25.925C22.1917 25.925 21.95 26.025 21.75 26.225C21.55 26.425 21.45 26.6667 21.45 26.95C21.45 27.2333 21.55 27.475 21.75 27.675C21.95 27.875 22.1917 27.975 22.475 27.975ZM21.75 24.8H23.25C23.25 24.3 23.3 23.95 23.4 23.75C23.5 23.55 23.8167 23.1833 24.35 22.65C24.65 22.35 24.9 22.025 25.1 21.675C25.3 21.325 25.4 20.95 25.4 20.55C25.4 19.7 25.1127 19.0623 24.538 18.637C23.9627 18.2123 23.2833 18 22.5 18C21.7667 18 21.15 18.204 20.65 18.612C20.15 19.0207 19.8 19.5167 19.6 20.1L21 20.65C21.0833 20.3667 21.2417 20.0873 21.475 19.812C21.7083 19.5373 22.05 19.4 22.5 19.4C22.95 19.4 23.2877 19.525 23.513 19.775C23.7377 20.025 23.85 20.3 23.85 20.6C23.85 20.8833 23.7667 21.1373 23.6 21.362C23.4333 21.5873 23.2333 21.8167 23 22.05C22.4167 22.55 22.0627 22.9457 21.938 23.237C21.8127 23.529 21.75 24.05 21.75 24.8Z" fill="#FCB41C"/>
</svg>
