<svg width="22" height="22" viewBox="0 0 22 22" fill="none" xmlns="http://www.w3.org/2000/svg">
<path d="M5.31348 6.56372C5.31348 6.21567 5.57212 5.92802 5.90769 5.8825L6.00098 5.87622L18.4839 5.87622C18.8636 5.87622 19.1714 6.18403 19.1714 6.56372C19.1714 6.91178 18.9128 7.19942 18.5772 7.24494L18.4839 7.25122L6.00098 7.25122C5.62128 7.25122 5.31348 6.94342 5.31348 6.56372Z" fill="black"/>
<path d="M14.2435 3.31309C13.9744 3.04523 13.9734 2.60993 14.2413 2.34082C14.4848 2.09618 14.8667 2.07311 15.1363 2.27219L15.2135 2.33857L18.9688 6.07654C19.2142 6.32085 19.2366 6.70424 19.0357 6.97384L18.9688 7.05105L15.2135 10.789C14.9444 11.0569 14.5091 11.0559 14.2413 10.7868C13.9977 10.5421 13.9764 10.1601 14.1768 9.89145L14.2435 9.8145L17.5087 6.5642L14.2435 3.31309Z" fill="black"/>
<path d="M2.82617 15.6648C2.82617 15.3167 3.08481 15.0291 3.42038 14.9836L3.51367 14.9773H15.9966C16.3763 14.9773 16.6841 15.2851 16.6841 15.6648C16.6841 16.0128 16.4255 16.3005 16.0899 16.346L15.9966 16.3523H3.51367C3.13398 16.3523 2.82617 16.0445 2.82617 15.6648Z" fill="black"/>
<path d="M3.02768 16.1519C2.78224 15.9076 2.75993 15.5242 2.96075 15.2546L3.02768 15.1774L6.78296 11.4394C7.05207 11.1715 7.48737 11.1725 7.75523 11.4417C7.99874 11.6863 8.02005 12.0683 7.81973 12.337L7.75298 12.4139L4.48681 15.6648L7.75298 18.9153C7.99763 19.1588 8.0207 19.5407 7.82162 19.8103L7.75523 19.8876C7.51172 20.1322 7.12983 20.1553 6.86022 19.9562L6.78296 19.8898L3.02768 16.1519Z" fill="black"/>
</svg>
