<svg width="20" height="15" viewBox="0 0 20 15" fill="none" xmlns="http://www.w3.org/2000/svg">
<path d="M18.2163 7.91671C17.6138 7.20711 16.7594 6.75899 15.833 6.66671C15.833 5.04171 15.2663 3.66671 14.133 2.53337C12.9997 1.40004 11.6247 0.833374 9.99967 0.833374C8.68301 0.833374 7.49967 1.22504 6.45801 2.02504C5.41634 2.82504 4.72467 3.85004 4.37467 5.12504C3.33301 5.35837 2.46634 5.90004 1.80801 6.75004C1.14967 7.60004 0.833008 8.56671 0.833008 9.65004C0.833008 10.9084 1.28301 11.9834 2.17467 12.8584C3.07467 13.75 4.16634 14.1667 5.41634 14.1667H15.4163C16.458 14.1667 17.3413 13.8 18.0747 13.075C18.7997 12.3417 19.1663 11.4584 19.1663 10.4167C19.1663 9.45837 18.8497 8.62504 18.2163 7.91671ZM10.833 11.6667H9.16634V10H10.833V11.6667ZM12.333 7.35004C12.083 7.67504 11.7747 7.91671 11.3913 8.12504C11.1747 8.25837 11.033 8.39171 10.958 8.55004C10.8706 8.74363 10.8279 8.95438 10.833 9.16671H9.16634C9.16634 8.70837 9.25801 8.40004 9.41634 8.18337C9.58301 7.96671 9.87467 7.70837 10.308 7.42504C10.5247 7.29171 10.6997 7.13337 10.833 6.93337C10.958 6.74171 11.0247 6.50837 11.0247 6.25004C11.0247 5.98337 10.9497 5.78337 10.7997 5.63337C10.6497 5.46671 10.4163 5.39171 10.1663 5.39171C9.94134 5.39171 9.75801 5.45837 9.58301 5.58337C9.45801 5.70837 9.37467 5.90004 9.37467 6.15837H7.73301C7.69134 5.53337 7.91634 5.00004 8.38301 4.65837C8.83301 4.33337 9.42467 4.16671 10.1663 4.16671C10.9497 4.16671 11.5747 4.35837 12.0247 4.73337C12.4747 5.10837 12.6997 5.62504 12.6997 6.25004C12.6997 6.66671 12.5747 7.00837 12.333 7.35004Z" fill="#222222"/>
</svg>
