<svg width="46" height="47" viewBox="0 0 46 47" fill="none" xmlns="http://www.w3.org/2000/svg">
<path fill-rule="evenodd" clip-rule="evenodd" d="M38.4451 17.3581C38.1048 16.4627 37.6824 15.5845 37.1754 14.7331C32.4645 6.82287 22.2331 4.22923 14.3228 8.94009C6.41254 13.6509 3.8189 23.8824 8.52976 31.7927C13.2406 39.7029 23.4721 42.2966 31.3823 37.5857C34.7179 35.5993 37.1081 32.6312 38.404 29.2695C37.805 28.7395 37.2908 28.114 36.8615 27.3931C36.2996 26.4497 35.9507 25.4563 35.8148 24.4131C35.6785 23.3702 35.7344 22.359 35.9827 21.3796C36.231 20.4002 36.6633 19.4843 37.2798 18.6318C37.6188 18.1634 38.0073 17.7388 38.4451 17.3581Z" fill="#3D02E6"/>
<path d="M21.0007 25.6667H25.0007V21.6667H27.6673L23.0007 17L18.334 21.6667H21.0007V25.6667ZM23.0007 18.8867L24.4473 20.3333H23.6673V24.3333H22.334V20.3333H21.554L23.0007 18.8867ZM18.334 27H27.6673V28.3333H18.334V27Z" fill="white"/>
</svg>
