<svg width="29" height="29" viewBox="0 0 29 29" fill="none" xmlns="http://www.w3.org/2000/svg">
<g clip-path="url(#clip0_645_26987)">
<path fill-rule="evenodd" clip-rule="evenodd" d="M0 0H40.6125V2.19319H0V0ZM0 4.38633H40.6125V6.57952H0V4.38633ZM0 8.76708H40.6125V10.9658H0V8.76708ZM0 13.1534H40.6125V15.3466H0V13.1534ZM0 17.5397H40.6125V19.7329H0V17.5397ZM0 21.9205H40.6125V24.1137H0V21.9205ZM0 26.3068H40.6125V28.5H0V26.3068Z" fill="#BD3D44"/>
<path fill-rule="evenodd" clip-rule="evenodd" d="M0 2.19312H40.6125V4.38625H0V2.19312ZM0 6.57938H40.6125V8.767H0V6.57938ZM0 10.9602H40.6125V13.1533H0V10.9602ZM0 15.3465H40.6125V17.5397H0V15.3465ZM0 19.7328H40.6125V21.926H0V19.7328ZM0 24.1136H40.6125V26.3068H0V24.1136Z" fill="white"/>
<path fill-rule="evenodd" clip-rule="evenodd" d="M0 0H16.2442V15.3466H0V0Z" fill="#192F5D"/>
<path fill-rule="evenodd" clip-rule="evenodd" d="M1.35276 0.656982L1.50305 1.26362H1.979L1.59488 1.63661L1.74103 2.24889L1.35276 1.87037L0.968679 2.2433L1.11479 1.63661L0.726562 1.26362H1.21084L1.35276 0.656982ZM4.06222 0.656982L4.20833 1.26362H4.68842L4.30015 1.63661L4.4463 2.24889L4.06222 1.87037L3.67395 2.2433L3.82006 1.63661L3.43598 1.26362H3.91193L4.06222 0.656982ZM6.76749 0.656982L6.91779 1.26368H7.38955L7.00547 1.63667L7.15153 2.24894L6.76331 1.87043L6.37923 2.24336L6.52533 1.63667L6.13706 1.26368H6.6172L6.76749 0.656982ZM9.47695 0.656982L9.62302 1.26368H10.1032L9.71488 1.63667L9.86518 2.24894L9.47691 1.87043L9.08869 2.24336L9.23898 1.63667L8.85071 1.26368H9.32666L9.47695 0.656982ZM12.1822 0.656982L12.3325 1.26368H12.8084L12.4243 1.63667L12.5705 2.24894L12.1822 1.87043L11.7981 2.24336L11.9443 1.63667L11.5602 1.26368H12.0361L12.1822 0.656982ZM14.8916 0.656982L15.0378 1.26368H15.5179L15.1296 1.63667L15.2799 2.24894L14.8916 1.87043L14.5034 2.24336L14.6537 1.63667L14.2654 1.26368H14.7455L14.8916 0.656982ZM2.70958 2.19319L2.85569 2.8H3.33578L2.94751 3.17288L3.08948 3.77969L2.71373 3.4067L2.3255 3.77963L2.46324 3.17294L2.08753 2.79994H2.56348L2.70958 2.19319ZM5.41486 2.19319L5.56515 2.8H6.04106L5.65279 3.17288L5.80313 3.77969L5.41481 3.4067L5.02659 3.77963L5.17688 3.17294L4.78861 2.79994H5.26871L5.41486 2.19319ZM8.12432 2.19319L8.27038 2.8H8.75051L8.36225 3.17288L8.50835 3.77969L8.12427 3.4067L7.73605 3.77963L7.88216 3.173L7.49807 2.8H7.97402L8.12432 2.19319ZM10.8296 2.19319L10.9799 2.8H11.4558L11.0675 3.17288L11.2178 3.77969L10.8295 3.4067L10.4455 3.77963L10.5916 3.17294L10.2033 2.79994H10.6876L10.8296 2.19319ZM13.539 2.19319L13.6851 2.8H14.1652L13.777 3.17288L13.9231 3.77969L13.539 3.4067L13.1507 3.77963L13.2969 3.17294L12.9128 2.79994H13.3887L13.539 2.19319ZM1.35276 3.72412L1.50305 4.34197H1.979L1.59488 4.71491L1.74103 5.32166L1.35276 4.94315L0.968679 5.32166L1.11479 4.70933L0.726562 4.33645H1.21084L1.35276 3.72412ZM4.06222 3.72412L4.20833 4.33627H4.68842L4.30015 4.70921L4.4463 5.31602L4.06222 4.93744L3.67395 5.31596L3.82006 4.70369L3.43598 4.33075H3.91193L4.06222 3.72412ZM6.76749 3.72412L6.91779 4.33639H7.38955L7.00547 4.70933L7.15153 5.31614L6.76331 4.93756L6.37923 5.31608L6.52533 4.7038L6.13706 4.33087H6.6172L6.76749 3.72412ZM9.47695 3.72412L9.62302 4.33639H10.1032L9.71488 4.70933L9.86518 5.31614L9.47691 4.93756L9.08869 5.31608L9.23898 4.7038L8.85071 4.33087H9.32666L9.47695 3.72412ZM12.1822 3.72412L12.3325 4.33639H12.8084L12.4243 4.70927L12.5705 5.31608L12.1822 4.9375L11.7981 5.31602L11.9443 4.70375L11.5602 4.33081H12.0361L12.1822 3.72412ZM14.8916 3.72412L15.0378 4.33639H15.5179L15.1296 4.70933L15.2799 5.31614L14.8916 4.93756L14.5034 5.31608L14.6537 4.7038L14.2654 4.33087H14.7455L14.8916 3.72412ZM2.70958 5.26039L2.85569 5.86714H3.33578L2.94751 6.24001L3.09367 6.85235L2.70958 6.47383L2.32132 6.84677L2.46742 6.24007L2.08334 5.86714H2.55934L2.70958 5.26039ZM5.41486 5.26039L5.56515 5.86714H6.04106L5.65279 6.24001L5.80313 6.85235L5.41481 6.47383L5.02659 6.84677L5.17688 6.24007L4.78861 5.86714H5.26871L5.41486 5.26039ZM8.12432 5.26039L8.27038 5.86714H8.75051L8.36225 6.24001L8.50835 6.85235L8.12427 6.47383L7.73605 6.84677L7.88216 6.24007L7.49807 5.86714H7.97402L8.12432 5.26039ZM10.8296 5.26039L10.9799 5.86714H11.4558L11.0717 6.24001L11.2178 6.85235L10.8295 6.47383L10.4455 6.84677L10.5916 6.24007L10.2033 5.86714H10.6876L10.8296 5.26039ZM13.539 5.26039L13.6851 5.86714H14.1652L13.777 6.24001L13.9231 6.85235L13.539 6.47383L13.1507 6.84677L13.2969 6.24007L12.9128 5.86714H13.3887L13.539 5.26039ZM1.35276 6.79671L1.50305 7.40347H1.979L1.59488 7.77634L1.74103 8.38868L1.35276 8.01016L0.968679 8.38309L1.11479 7.7764L0.726562 7.40347H1.21084L1.35276 6.79671ZM4.06222 6.79671L4.20833 7.40347H4.68842L4.30015 7.77634L4.4463 8.38315L4.06222 8.01016L3.67395 8.38309L3.82006 7.7764L3.43598 7.40347H3.91193L4.06222 6.79671ZM6.76749 6.79671L6.91779 7.40347H7.38955L7.00547 7.77634L7.15153 8.38868L6.76331 8.01016L6.37923 8.38309L6.52533 7.7764L6.13706 7.40347H6.6172L6.76749 6.79671ZM9.47695 6.79671L9.62302 7.40347H10.1032L9.71488 7.77634L9.86518 8.38868L9.47691 8.01016L9.08869 8.38309L9.23898 7.7764L8.85071 7.40347H9.32666L9.47695 6.79671ZM12.1822 6.79671L12.3325 7.40347H12.8084L12.4243 7.77634L12.5705 8.38868L12.1822 8.01016L11.7981 8.38309L11.9443 7.7764L11.5602 7.40347H12.0361L12.1822 6.79671ZM14.8916 6.79671L15.0378 7.40347H15.5179L15.1296 7.77634L15.2799 8.38868L14.8916 8.01016L14.5034 8.38309L14.6537 7.7764L14.2654 7.40347H14.7455L14.8916 6.79671ZM2.70958 8.33304L2.85569 8.9398H3.33578L2.94751 9.31267L3.09367 9.91948L2.70958 9.54097L2.32132 9.91948L2.46742 9.30715L2.08334 8.93421H2.55934L2.70958 8.33304ZM5.41486 8.33304L5.56515 8.9398H6.04106L5.65279 9.31267L5.80313 9.91948L5.41481 9.54097L5.02659 9.91948L5.17688 9.30715L4.78861 8.93421H5.26871L5.41486 8.33304ZM8.12432 8.33304L8.27038 8.9398H8.75051L8.36225 9.31267L8.50835 9.91948L8.12427 9.54097L7.73605 9.91948L7.88216 9.30715L7.49807 8.93421H7.97402L8.12432 8.33304ZM10.8296 8.33304L10.9799 8.9398H11.4558L11.0717 9.31267L11.2178 9.91948L10.8295 9.54097L10.4455 9.91948L10.5916 9.30715L10.2033 8.93421H10.6876L10.8296 8.33304ZM13.539 8.33304L13.6851 8.9398H14.1652L13.777 9.31267L13.9231 9.91948L13.539 9.54097L13.1507 9.91948L13.2969 9.30715L12.9128 8.93421H13.3887L13.539 8.33304ZM1.35276 9.86379L1.50305 10.4761H1.979L1.59488 10.849L1.74103 11.4502L1.35276 11.0773L0.968679 11.4502L1.11479 10.8435L0.726562 10.4705H1.21084L1.35276 9.86379ZM4.06222 9.86379L4.20833 10.4761H4.68842L4.30015 10.849L4.45049 11.4502L4.06218 11.0773L3.67395 11.4502L3.82425 10.8435L3.43598 10.4705H3.91193L4.06222 9.86379ZM6.76749 9.86379L6.91779 10.4761H7.38955L7.00547 10.849L7.15153 11.4502L6.76331 11.0773L6.37923 11.4502L6.52533 10.8435L6.13706 10.4705H6.6172L6.76749 9.86379ZM9.47695 9.86379L9.62302 10.4761H10.1032L9.71488 10.849L9.86518 11.4502L9.47691 11.0773L9.08869 11.4502L9.23898 10.8435L8.85071 10.4705H9.32666L9.47695 9.86379ZM12.1822 9.86379L12.3325 10.4761H12.8084L12.4243 10.849L12.5705 11.4502L12.1822 11.0773L11.7981 11.4502L11.9443 10.8435L11.5602 10.4705H12.0361L12.1822 9.86379ZM14.8916 9.86379L15.0378 10.4761H15.5179L15.1296 10.849L15.2799 11.4502L14.8916 11.0773L14.5034 11.4502L14.6537 10.8435L14.2654 10.4705H14.7455L14.8916 9.86379ZM2.70958 11.4001L2.85569 12.0069H3.33578L2.94751 12.3798L3.09367 12.9921L2.70958 12.6136L2.32132 12.9865L2.46742 12.3798L2.08334 12.0069H2.55934L2.70958 11.4001ZM5.41486 11.4001L5.56515 12.0069H6.04106L5.65279 12.3798L5.80313 12.9921L5.41481 12.6136L5.02659 12.9865L5.17688 12.3798L4.78861 12.0069H5.26871L5.41486 11.4001ZM8.12432 11.4001L8.27038 12.0069H8.75051L8.36225 12.3798L8.50835 12.9921L8.12427 12.6136L7.73605 12.9865L7.88216 12.3798L7.49807 12.0069H7.97402L8.12432 11.4001ZM10.8296 11.4001L10.9799 12.0069H11.4558L11.0717 12.3798L11.2178 12.9921L10.8295 12.6136L10.4455 12.9865L10.5916 12.3798L10.2033 12.0069H10.6876L10.8296 11.4001ZM13.539 11.4001L13.6851 12.0069H14.1652L13.777 12.3798L13.9231 12.9921L13.539 12.6136L13.1507 12.9865L13.2969 12.3798L12.9128 12.0069H13.3887L13.539 11.4001ZM1.35276 12.9364L1.50305 13.5432H1.979L1.59488 13.9161L1.74103 14.5229L1.35276 14.15L0.968679 14.5228L1.11479 13.9106L0.726562 13.5376H1.21084L1.35276 12.9364ZM4.06222 12.9364L4.20833 13.5432H4.68842L4.30015 13.9161L4.45049 14.5229L4.06218 14.15L3.67395 14.5228L3.82425 13.9106L3.43598 13.5376H3.91193L4.06222 12.9364ZM6.76749 12.9364L6.91779 13.5432H7.38955L7.0138 13.9161L7.1599 14.5229L6.77164 14.15L6.38755 14.5228L6.5337 13.9106L6.14544 13.5376H6.62553L6.76749 12.9364ZM9.47695 12.9364L9.62302 13.5432H10.1032L9.71488 13.9161L9.86518 14.5229L9.47691 14.15L9.08869 14.5228L9.23898 13.9106L8.85071 13.5376H9.32666L9.47695 12.9364ZM12.1822 12.9364L12.3325 13.5432H12.8084L12.4243 13.9161L12.5705 14.5229L12.1822 14.15L11.7981 14.5228L11.9443 13.9106L11.5602 13.5376H12.0361L12.1822 12.9364ZM14.8916 12.9364L15.0378 13.5432H15.5179L15.1296 13.9161L15.2799 14.5229L14.8916 14.15L14.5034 14.5228L14.6537 13.9106L14.2654 13.5376H14.7455L14.8916 12.9364Z" fill="white"/>
</g>
<defs>
<clipPath id="clip0_645_26987">
<rect width="28.5" height="28.5" rx="14.25" fill="white"/>
</clipPath>
</defs>
</svg>
